<svg width="558" height="365" viewBox="0 0 558 365" fill="none" xmlns="http://www.w3.org/2000/svg">
<g filter="url(#filter0_f_579_430)">
<path d="M140.535 95.0188C130.535 93.5186 125.812 95.2432 122.035 102.019M140.535 95.0188C149.573 79.3616 155.781 72.7024 168.535 64.019M140.535 95.0188C139.937 96.5428 139.425 98.043 139 99.5191M122.035 102.019C124.852 102.866 126.736 103.052 131.535 102.019M122.035 102.019C114.257 102.019 109.229 105.019 106.951 111.019M105.535 120.019C95.0351 123.019 94.6163 128.599 101.535 140.519M105.535 120.019C118.096 116.735 124.567 113.544 134.535 104.019M105.535 120.019C105.535 116.504 106.007 113.504 106.951 111.019M101.535 140.519C115.435 131.23 123.216 126.35 137.442 108.519M101.535 140.519C96.4129 144.04 97.44 150.022 103.567 157.019M118.535 169.519C123.708 151.128 128.387 141.386 141.432 125.519M118.535 169.519C120.027 177.488 125.388 183.475 133.205 188.019M118.535 169.519C112.06 165.202 107.009 160.95 103.567 157.019M258.035 218.519C261.147 203.182 260.791 194.052 254.535 176.326M258.035 218.519C254.069 220.098 250.063 221.329 246.034 222.229M258.035 218.519C268.339 217.228 276.365 215.648 283.534 212.766M309.035 194.019C323.535 191.519 335.001 180.58 348.035 166.019M309.035 194.019C301.173 194.595 292.07 186.02 275.203 169.519M309.035 194.019C300.039 203.582 292.449 209.181 283.534 212.766M348.035 166.019C354.854 168.097 359.035 166.019 360.535 162.019M348.035 166.019L340.035 151.058M360.535 162.019C380.73 161.36 397.606 162.019 404.035 164.519C408.629 166.305 413.209 167.412 417.535 167.899M360.535 162.019C368.034 177.019 393.534 184.519 395.034 199.019M317.035 32.5188C303.535 25.019 283.035 23.0189 269.035 27.0188M317.035 32.5188C313.532 34.7423 311.548 35.9848 303.535 36.019M317.035 32.5188C345.408 36.6377 368.755 49.9711 388.609 72.519M269.035 27.0188C233.576 27.1285 215.125 29.0278 193.535 47.0191M269.035 27.0188C241.153 29.2968 228.504 34.1252 209.535 47.0191M269.035 27.0188C283.599 26.8786 291.454 27.844 303.535 36.019M193.535 47.0191C183.379 48.8097 177.927 52.6437 168.535 64.019M193.535 47.0191H209.535M168.535 64.019C155.572 81.4517 149.316 88.6971 139 99.5191M187.035 152.019C181.634 150.773 176.626 149.315 172.035 147.655M187.035 152.019C191.302 156.689 196.204 160.775 201.535 164.217M187.035 152.019C191.535 131.019 219.516 110.294 250.535 89.5191M290.535 157.019C286.076 162.249 280.883 166.392 275.203 169.519M290.535 157.019C307.599 147.795 330.875 152.61 340.035 151.058M290.535 157.019C288.289 124.625 285.489 109.832 275.203 95.0188M382.535 127.019C362.035 130.019 348.035 148.019 342.035 150.519C341.476 150.752 340.806 150.927 340.035 151.058M382.535 127.019C389.21 128.404 394.889 128.897 399.535 128.468M382.535 127.019C364.697 104.527 355.399 89.8863 333.535 79.0188M412.696 99.5191C423.348 115.555 431.674 134.434 435.035 138.019C438.405 141.613 440.675 144.96 442.01 148.019M412.696 99.5191C407.005 90.9524 400.651 83.1972 394.035 79.0188C392.256 76.7732 390.447 74.6066 388.609 72.519M412.696 99.5191C415.298 108.437 415.513 115.241 413.447 120.019M137.442 108.519C137.127 114.714 138.501 120.396 141.432 125.519M137.442 108.519C137.589 105.629 138.104 102.628 139 99.5191M141.432 125.519C142.799 127.909 144.504 130.177 146.535 132.319M133.205 188.019C135.787 166.153 138.467 154.352 150.535 136.036M133.205 188.019C139.733 196.857 149.124 204.044 162.035 208.789M150.535 136.036C156.084 140.606 163.305 144.498 172.035 147.655M150.535 136.036C149.087 134.843 147.752 133.604 146.535 132.319M162.035 208.789C160.67 185.161 162.303 171.802 172.035 147.655M162.035 208.789C169.622 214.183 178.447 218.013 189.035 219.247M189.035 219.247C187.704 196.51 187.51 183.876 201.535 164.217M189.035 219.247C198.957 223.643 209.824 225.45 221.535 223.766M201.535 164.217C210.486 169.997 220.646 173.962 231.035 175.824M221.535 223.766C231.492 214.634 234.744 205.936 231.035 175.824M221.535 223.766C229.688 224.511 237.905 224.045 246.034 222.229M231.035 175.824C238.878 177.23 246.851 177.439 254.535 176.326M254.535 176.326C261.802 175.273 268.81 173.039 275.203 169.519M413.447 120.019C423.745 134.459 429.462 142.787 442.01 148.019M413.447 120.019C411.28 125.034 406.601 127.816 399.535 128.468M442.01 148.019C448.07 161.91 434.827 169.847 417.535 167.899M399.535 128.468C403.298 145.692 405.815 155.12 417.535 167.899M146.535 132.319C178.083 87.8781 192.429 75.3381 215.035 64.019M215.035 64.019C215.734 57.3679 215.025 53.6398 209.535 47.0191M215.035 64.019C214.72 67.019 230.744 63.102 241.035 68.519M303.535 36.019C301.427 41.9272 303.535 46.2551 306.535 47.0191M306.535 47.0191C322.13 50.9903 329.875 54.747 341.035 65.519M306.535 47.0191C275.5 49.3256 261.849 54.7971 241.035 68.519M341.035 65.519C359.632 59.1583 370.07 60.5134 388.609 72.519M341.035 65.519C335.697 67.6604 334.161 70.7434 333.535 79.0188M333.535 79.0188C309.323 79.2082 296.7 83.3584 275.203 95.0188M275.203 95.0188C266.001 89.8768 250.535 92.0191 250.535 89.5191M250.535 89.5191C248.987 81.236 246.881 76.6268 241.035 68.519M106.951 111.019C83.535 116.019 69.035 108.519 49.035 117.519C45.1884 118.949 43.0145 119.501 39.035 119.019C35.5347 118.595 41.6431 123.579 46.035 124.019M45.0347 125.019C43.7238 127.862 30.7064 137.634 25.5347 139.019C22.0342 139.956 36.5287 139.631 45.5347 135.519M46.5342 137.019C42.0943 144.24 39.0658 146.47 33.5342 150.019C31.0342 151.623 43.8029 149.226 53.5342 145.519M56.0342 145.019C59.1413 144.249 59.8568 144.611 59.5342 146.519C58.3674 149.065 57.3586 150.009 55.0342 151.019C51.0342 152.757 63.7212 151.994 69.5342 149.019C74.9758 146.341 78.1273 145.542 84.5342 149.519C87.7559 151.519 90.5342 156.019 103.567 157.019M103.567 157.019C139.034 213.019 194.534 264.019 271.534 266.519C239.034 266.519 212.534 243.519 246.034 222.229M52.0342 119.019C52.6212 121.143 52.5255 122.172 51.0342 123.519M49.035 127.519C51.8129 129.006 52.1175 130.217 50.5342 133.019M52.5342 136.019C55.8625 137.195 57.201 138.115 57.0342 141.019M64.0342 144.519C66.2928 144.397 67.332 144.824 68.5342 147.019M283.534 212.766C299.151 206.035 313.931 207.779 323.013 216.019M289.534 311.019C312.057 289.856 324.389 270.796 329.432 255.019M292.034 228.019C282.034 263.019 247.034 288.019 268.534 318.019M279.034 295.519C284.034 291.519 292.034 295.519 288.534 302.019M279.034 299.019C270.095 320.135 267.279 328.484 287.034 304.019M275.034 319.019C268.138 337.91 269.55 339.205 288.534 312.519M271.534 321.519C264.746 335.655 258.839 346.593 271.034 333.519M268.534 320.019C260.971 330.904 260.307 332.727 269.534 323.519M269.534 315.519C270.807 314.989 271.558 313.994 273.034 310.019M395.034 199.019C396.224 210.519 396.378 219.962 395.034 233.019C394.928 234.046 394.738 235.046 394.467 236.019M395.034 199.019C382.034 172.019 326.034 173.019 323.013 216.019M370.034 256.519C363.034 261.519 358.034 262.019 350.034 256.019M370.034 256.519C382.659 251.686 391.972 244.993 394.467 236.019M370.034 256.519C370.5 256.186 371.39 254.147 372.5 252.5C374.617 249.361 376.542 248.425 381.534 248.5M350.034 256.019C348.58 255.392 347.259 254.782 346.034 254.162M350.034 256.019L347 252C346 251 344.133 247.626 338.5 246.5M332.02 242.519C333.005 230.907 329.431 221.841 323.013 216.019M332.02 242.519C331.69 246.409 330.849 250.584 329.432 255.019M332.02 242.519C336.959 248.362 340.516 251.369 346.034 254.162M358.534 234.519V236.019M365.534 234.519V236.019M342.035 229.519C340.548 219.67 338.358 215.998 332.02 212.766C332.58 226.934 335.67 229.061 342.534 230.019M430.534 167.899C430.543 169.713 430.18 170.389 429.034 171.019M429.034 171.019C467.034 178.519 511.034 199.019 516.534 217.519C537.304 235.434 540.177 240.283 515.034 231.019C538.522 256.629 536.726 258.544 510.034 242.519C520.72 274.301 515.551 270.054 499.534 249.019C503.728 264.884 502.402 265.805 492.034 250.019C488.936 251.127 487.298 249.253 484.534 242.519C481.944 246.155 479.619 244.719 474.534 238.519C456.015 228.663 443.011 222.979 424.534 216.705M429.034 171.019C391.534 167.899 389.034 199.019 409.274 211.75M408.534 211.519C408.782 211.596 409.028 211.674 409.274 211.75M409.274 211.75C414.83 213.491 419.857 215.117 424.534 216.705M424.534 216.705C408.534 220.019 404.547 234.03 394.467 236.019M329.432 255.019C336.673 258.33 340.382 258.471 346.034 254.162M512.5 223.766C511.182 238.071 507.713 243.968 494.5 249.019M381.534 231.019C382.124 222.852 384.034 217.519 390.034 216.019C390.034 228.019 387.177 229.89 381.534 231.019Z" stroke="url(#paint0_linear_579_430)" stroke-width="10" stroke-linecap="round" stroke-linejoin="round"/>
</g>
<g filter="url(#filter1_f_579_430)">
<path d="M140.535 95.0188C130.535 93.5186 125.812 95.2432 122.035 102.019M140.535 95.0188C149.573 79.3616 155.781 72.7024 168.535 64.019M140.535 95.0188C139.937 96.5428 139.425 98.043 139 99.5191M122.035 102.019C124.852 102.866 126.736 103.052 131.535 102.019M122.035 102.019C114.257 102.019 109.229 105.019 106.951 111.019M105.535 120.019C95.0351 123.019 94.6163 128.599 101.535 140.519M105.535 120.019C118.096 116.735 124.567 113.544 134.535 104.019M105.535 120.019C105.535 116.504 106.007 113.504 106.951 111.019M101.535 140.519C115.435 131.23 123.216 126.35 137.442 108.519M101.535 140.519C96.4129 144.04 97.44 150.022 103.567 157.019M118.535 169.519C123.708 151.128 128.387 141.386 141.432 125.519M118.535 169.519C120.027 177.488 125.388 183.475 133.205 188.019M118.535 169.519C112.06 165.202 107.009 160.95 103.567 157.019M258.035 218.519C261.147 203.182 260.791 194.052 254.535 176.326M258.035 218.519C254.069 220.098 250.063 221.329 246.034 222.229M258.035 218.519C268.339 217.228 276.365 215.648 283.534 212.766M309.035 194.019C323.535 191.519 335.001 180.58 348.035 166.019M309.035 194.019C301.173 194.595 292.07 186.02 275.203 169.519M309.035 194.019C300.039 203.582 292.449 209.181 283.534 212.766M348.035 166.019C354.854 168.097 359.035 166.019 360.535 162.019M348.035 166.019L340.035 151.058M360.535 162.019C380.73 161.36 397.606 162.019 404.035 164.519C408.629 166.305 413.209 167.412 417.535 167.899M360.535 162.019C368.034 177.019 393.534 184.519 395.034 199.019M317.035 32.5188C303.535 25.019 283.035 23.0189 269.035 27.0188M317.035 32.5188C313.532 34.7423 311.548 35.9848 303.535 36.019M317.035 32.5188C345.408 36.6377 368.755 49.9711 388.609 72.519M269.035 27.0188C233.576 27.1285 215.125 29.0278 193.535 47.0191M269.035 27.0188C241.153 29.2968 228.504 34.1252 209.535 47.0191M269.035 27.0188C283.599 26.8786 291.454 27.844 303.535 36.019M193.535 47.0191C183.379 48.8097 177.927 52.6437 168.535 64.019M193.535 47.0191H209.535M168.535 64.019C155.572 81.4517 149.316 88.6971 139 99.5191M187.035 152.019C181.634 150.773 176.626 149.315 172.035 147.655M187.035 152.019C191.302 156.689 196.204 160.775 201.535 164.217M187.035 152.019C191.535 131.019 219.516 110.294 250.535 89.5191M290.535 157.019C286.076 162.249 280.883 166.392 275.203 169.519M290.535 157.019C307.599 147.795 330.875 152.61 340.035 151.058M290.535 157.019C288.289 124.625 285.489 109.832 275.203 95.0188M382.535 127.019C362.035 130.019 348.035 148.019 342.035 150.519C341.476 150.752 340.806 150.927 340.035 151.058M382.535 127.019C389.21 128.404 394.889 128.897 399.535 128.468M382.535 127.019C364.697 104.527 355.399 89.8863 333.535 79.0188M412.696 99.5191C423.348 115.555 431.674 134.434 435.035 138.019C438.405 141.613 440.675 144.96 442.01 148.019M412.696 99.5191C407.005 90.9524 400.651 83.1972 394.035 79.0188C392.256 76.7732 390.447 74.6066 388.609 72.519M412.696 99.5191C415.298 108.437 415.513 115.241 413.447 120.019M137.442 108.519C137.127 114.714 138.501 120.396 141.432 125.519M137.442 108.519C137.589 105.629 138.104 102.628 139 99.5191M141.432 125.519C142.799 127.909 144.504 130.177 146.535 132.319M133.205 188.019C135.787 166.153 138.467 154.352 150.535 136.036M133.205 188.019C139.733 196.857 149.124 204.044 162.035 208.789M150.535 136.036C156.084 140.606 163.305 144.498 172.035 147.655M150.535 136.036C149.087 134.843 147.752 133.604 146.535 132.319M162.035 208.789C160.67 185.161 162.303 171.802 172.035 147.655M162.035 208.789C169.622 214.183 178.447 218.013 189.035 219.247M189.035 219.247C187.704 196.51 187.51 183.876 201.535 164.217M189.035 219.247C198.957 223.643 209.824 225.45 221.535 223.766M201.535 164.217C210.486 169.997 220.646 173.962 231.035 175.824M221.535 223.766C231.492 214.634 234.744 205.936 231.035 175.824M221.535 223.766C229.688 224.511 237.905 224.045 246.034 222.229M231.035 175.824C238.878 177.23 246.851 177.439 254.535 176.326M254.535 176.326C261.802 175.273 268.81 173.039 275.203 169.519M413.447 120.019C423.745 134.459 429.462 142.787 442.01 148.019M413.447 120.019C411.28 125.034 406.601 127.816 399.535 128.468M442.01 148.019C448.07 161.91 434.827 169.847 417.535 167.899M399.535 128.468C403.298 145.692 405.815 155.12 417.535 167.899M146.535 132.319C178.083 87.8781 192.429 75.3381 215.035 64.019M215.035 64.019C215.734 57.3679 215.025 53.6398 209.535 47.0191M215.035 64.019C214.72 67.019 230.744 63.102 241.035 68.519M303.535 36.019C301.427 41.9272 303.535 46.2551 306.535 47.0191M306.535 47.0191C322.13 50.9903 329.875 54.747 341.035 65.519M306.535 47.0191C275.5 49.3256 261.849 54.7971 241.035 68.519M341.035 65.519C359.632 59.1583 370.07 60.5134 388.609 72.519M341.035 65.519C335.697 67.6604 334.161 70.7434 333.535 79.0188M333.535 79.0188C309.323 79.2082 296.7 83.3584 275.203 95.0188M275.203 95.0188C266.001 89.8768 250.535 92.0191 250.535 89.5191M250.535 89.5191C248.987 81.236 246.881 76.6268 241.035 68.519M106.951 111.019C83.535 116.019 69.035 108.519 49.035 117.519C45.1884 118.949 43.0145 119.501 39.035 119.019C35.5347 118.595 41.6431 123.579 46.035 124.019M45.0347 125.019C43.7238 127.862 30.7064 137.634 25.5347 139.019C22.0342 139.956 36.5287 139.631 45.5347 135.519M46.5342 137.019C42.0943 144.24 39.0658 146.47 33.5342 150.019C31.0342 151.623 43.8029 149.226 53.5342 145.519M56.0342 145.019C59.1413 144.249 59.8568 144.611 59.5342 146.519C58.3674 149.065 57.3586 150.009 55.0342 151.019C51.0342 152.757 63.7212 151.994 69.5342 149.019C74.9758 146.341 78.1273 145.542 84.5342 149.519C87.7559 151.519 90.5342 156.019 103.567 157.019M103.567 157.019C139.034 213.019 194.534 264.019 271.534 266.519C239.034 266.519 212.534 243.519 246.034 222.229M52.0342 119.019C52.6212 121.143 52.5255 122.172 51.0342 123.519M49.035 127.519C51.8129 129.006 52.1175 130.217 50.5342 133.019M52.5342 136.019C55.8625 137.195 57.201 138.115 57.0342 141.019M64.0342 144.519C66.2928 144.397 67.332 144.824 68.5342 147.019M283.534 212.766C299.151 206.035 313.931 207.779 323.013 216.019M289.534 311.019C312.057 289.856 324.389 270.796 329.432 255.019M292.034 228.019C282.034 263.019 247.034 288.019 268.534 318.019M279.034 295.519C284.034 291.519 292.034 295.519 288.534 302.019M279.034 299.019C270.095 320.135 267.279 328.484 287.034 304.019M275.034 319.019C268.138 337.91 269.55 339.205 288.534 312.519M271.534 321.519C264.746 335.655 258.839 346.593 271.034 333.519M268.534 320.019C260.971 330.904 260.307 332.727 269.534 323.519M269.534 315.519C270.807 314.989 271.558 313.994 273.034 310.019M395.034 199.019C396.224 210.519 396.378 219.962 395.034 233.019C394.928 234.046 394.738 235.046 394.467 236.019M395.034 199.019C382.034 172.019 326.034 173.019 323.013 216.019M370.034 256.519C363.034 261.519 358.034 262.019 350.034 256.019M370.034 256.519C382.659 251.686 391.972 244.993 394.467 236.019M370.034 256.519C370.5 256.186 371.39 254.147 372.5 252.5C374.617 249.361 376.542 248.425 381.534 248.5M350.034 256.019C348.58 255.392 347.259 254.782 346.034 254.162M350.034 256.019L347 252C346 251 344.133 247.626 338.5 246.5M332.02 242.519C333.005 230.907 329.431 221.841 323.013 216.019M332.02 242.519C331.69 246.409 330.849 250.584 329.432 255.019M332.02 242.519C336.959 248.362 340.516 251.369 346.034 254.162M358.534 234.519V236.019M365.534 234.519V236.019M342.035 229.519C340.548 219.67 338.358 215.998 332.02 212.766C332.58 226.934 335.67 229.061 342.534 230.019M430.534 167.899C430.543 169.713 430.18 170.389 429.034 171.019M429.034 171.019C467.034 178.519 511.034 199.019 516.534 217.519C537.304 235.434 540.177 240.283 515.034 231.019C538.522 256.629 536.726 258.544 510.034 242.519C520.72 274.301 515.551 270.054 499.534 249.019C503.728 264.884 502.402 265.805 492.034 250.019C488.936 251.127 487.298 249.253 484.534 242.519C481.944 246.155 479.619 244.719 474.534 238.519C456.015 228.663 443.011 222.979 424.534 216.705M429.034 171.019C391.534 167.899 389.034 199.019 409.274 211.75M408.534 211.519C408.782 211.596 409.028 211.674 409.274 211.75M409.274 211.75C414.83 213.491 419.857 215.117 424.534 216.705M424.534 216.705C408.534 220.019 404.547 234.03 394.467 236.019M329.432 255.019C336.673 258.33 340.382 258.471 346.034 254.162M512.5 223.766C511.182 238.071 507.713 243.968 494.5 249.019M381.534 231.019C382.124 222.852 384.034 217.519 390.034 216.019C390.034 228.019 387.177 229.89 381.534 231.019Z" stroke="url(#paint1_linear_579_430)" stroke-width="5" stroke-linecap="round" stroke-linejoin="round"/>
</g>
<g filter="url(#filter2_f_579_430)">
<path d="M140.535 95.0188C130.535 93.5186 125.812 95.2432 122.035 102.019M140.535 95.0188C149.573 79.3616 155.781 72.7024 168.535 64.019M140.535 95.0188C139.937 96.5428 139.425 98.043 139 99.5191M122.035 102.019C124.852 102.866 126.736 103.052 131.535 102.019M122.035 102.019C114.257 102.019 109.229 105.019 106.951 111.019M105.535 120.019C95.0351 123.019 94.6163 128.599 101.535 140.519M105.535 120.019C118.096 116.735 124.567 113.544 134.535 104.019M105.535 120.019C105.535 116.504 106.007 113.504 106.951 111.019M101.535 140.519C115.435 131.23 123.216 126.35 137.442 108.519M101.535 140.519C96.4129 144.04 97.44 150.022 103.567 157.019M118.535 169.519C123.708 151.128 128.387 141.386 141.432 125.519M118.535 169.519C120.027 177.488 125.388 183.475 133.205 188.019M118.535 169.519C112.06 165.202 107.009 160.95 103.567 157.019M258.035 218.519C261.147 203.182 260.791 194.052 254.535 176.326M258.035 218.519C254.069 220.098 250.063 221.329 246.034 222.229M258.035 218.519C268.339 217.228 276.365 215.648 283.534 212.766M309.035 194.019C323.535 191.519 335.001 180.58 348.035 166.019M309.035 194.019C301.173 194.595 292.07 186.02 275.203 169.519M309.035 194.019C300.039 203.582 292.449 209.181 283.534 212.766M348.035 166.019C354.854 168.097 359.035 166.019 360.535 162.019M348.035 166.019L340.035 151.058M360.535 162.019C380.73 161.36 397.606 162.019 404.035 164.519C408.629 166.305 413.209 167.412 417.535 167.899M360.535 162.019C368.034 177.019 393.534 184.519 395.034 199.019M317.035 32.5188C303.535 25.019 283.035 23.0189 269.035 27.0188M317.035 32.5188C313.532 34.7423 311.548 35.9848 303.535 36.019M317.035 32.5188C345.408 36.6377 368.755 49.9711 388.609 72.519M269.035 27.0188C233.576 27.1285 215.125 29.0278 193.535 47.0191M269.035 27.0188C241.153 29.2968 228.504 34.1252 209.535 47.0191M269.035 27.0188C283.599 26.8786 291.454 27.844 303.535 36.019M193.535 47.0191C183.379 48.8097 177.927 52.6437 168.535 64.019M193.535 47.0191H209.535M168.535 64.019C155.572 81.4517 149.316 88.6971 139 99.5191M187.035 152.019C181.634 150.773 176.626 149.315 172.035 147.655M187.035 152.019C191.302 156.689 196.204 160.775 201.535 164.217M187.035 152.019C191.535 131.019 219.516 110.294 250.535 89.5191M290.535 157.019C286.076 162.249 280.883 166.392 275.203 169.519M290.535 157.019C307.599 147.795 330.875 152.61 340.035 151.058M290.535 157.019C288.289 124.625 285.489 109.832 275.203 95.0188M382.535 127.019C362.035 130.019 348.035 148.019 342.035 150.519C341.476 150.752 340.806 150.927 340.035 151.058M382.535 127.019C389.21 128.404 394.889 128.897 399.535 128.468M382.535 127.019C364.697 104.527 355.399 89.8863 333.535 79.0188M412.696 99.5191C423.348 115.555 431.674 134.434 435.035 138.019C438.405 141.613 440.675 144.96 442.01 148.019M412.696 99.5191C407.005 90.9524 400.651 83.1972 394.035 79.0188C392.256 76.7732 390.447 74.6066 388.609 72.519M412.696 99.5191C415.298 108.437 415.513 115.241 413.447 120.019M137.442 108.519C137.127 114.714 138.501 120.396 141.432 125.519M137.442 108.519C137.589 105.629 138.104 102.628 139 99.5191M141.432 125.519C142.799 127.909 144.504 130.177 146.535 132.319M133.205 188.019C135.787 166.153 138.467 154.352 150.535 136.036M133.205 188.019C139.733 196.857 149.124 204.044 162.035 208.789M150.535 136.036C156.084 140.606 163.305 144.498 172.035 147.655M150.535 136.036C149.087 134.843 147.752 133.604 146.535 132.319M162.035 208.789C160.67 185.161 162.303 171.802 172.035 147.655M162.035 208.789C169.622 214.183 178.447 218.013 189.035 219.247M189.035 219.247C187.704 196.51 187.51 183.876 201.535 164.217M189.035 219.247C198.957 223.643 209.824 225.45 221.535 223.766M201.535 164.217C210.486 169.997 220.646 173.962 231.035 175.824M221.535 223.766C231.492 214.634 234.744 205.936 231.035 175.824M221.535 223.766C229.688 224.511 237.905 224.045 246.034 222.229M231.035 175.824C238.878 177.23 246.851 177.439 254.535 176.326M254.535 176.326C261.802 175.273 268.81 173.039 275.203 169.519M413.447 120.019C423.745 134.459 429.462 142.787 442.01 148.019M413.447 120.019C411.28 125.034 406.601 127.816 399.535 128.468M442.01 148.019C448.07 161.91 434.827 169.847 417.535 167.899M399.535 128.468C403.298 145.692 405.815 155.12 417.535 167.899M146.535 132.319C178.083 87.8781 192.429 75.3381 215.035 64.019M215.035 64.019C215.734 57.3679 215.025 53.6398 209.535 47.0191M215.035 64.019C214.72 67.019 230.744 63.102 241.035 68.519M303.535 36.019C301.427 41.9272 303.535 46.2551 306.535 47.0191M306.535 47.0191C322.13 50.9903 329.875 54.747 341.035 65.519M306.535 47.0191C275.5 49.3256 261.849 54.7971 241.035 68.519M341.035 65.519C359.632 59.1583 370.07 60.5134 388.609 72.519M341.035 65.519C335.697 67.6604 334.161 70.7434 333.535 79.0188M333.535 79.0188C309.323 79.2082 296.7 83.3584 275.203 95.0188M275.203 95.0188C266.001 89.8768 250.535 92.0191 250.535 89.5191M250.535 89.5191C248.987 81.236 246.881 76.6268 241.035 68.519M106.951 111.019C83.535 116.019 69.035 108.519 49.035 117.519C45.1884 118.949 43.0145 119.501 39.035 119.019C35.5347 118.595 41.6431 123.579 46.035 124.019M45.0347 125.019C43.7238 127.862 30.7064 137.634 25.5347 139.019C22.0342 139.956 36.5287 139.631 45.5347 135.519M46.5342 137.019C42.0943 144.24 39.0658 146.47 33.5342 150.019C31.0342 151.623 43.8029 149.226 53.5342 145.519M56.0342 145.019C59.1413 144.249 59.8568 144.611 59.5342 146.519C58.3674 149.065 57.3586 150.009 55.0342 151.019C51.0342 152.757 63.7212 151.994 69.5342 149.019C74.9758 146.341 78.1273 145.542 84.5342 149.519C87.7559 151.519 90.5342 156.019 103.567 157.019M103.567 157.019C139.034 213.019 194.534 264.019 271.534 266.519C239.034 266.519 212.534 243.519 246.034 222.229M52.0342 119.019C52.6212 121.143 52.5255 122.172 51.0342 123.519M49.035 127.519C51.8129 129.006 52.1175 130.217 50.5342 133.019M52.5342 136.019C55.8625 137.195 57.201 138.115 57.0342 141.019M64.0342 144.519C66.2928 144.397 67.332 144.824 68.5342 147.019M283.534 212.766C299.151 206.035 313.931 207.779 323.013 216.019M289.534 311.019C312.057 289.856 324.389 270.796 329.432 255.019M292.034 228.019C282.034 263.019 247.034 288.019 268.534 318.019M279.034 295.519C284.034 291.519 292.034 295.519 288.534 302.019M279.034 299.019C270.095 320.135 267.279 328.484 287.034 304.019M275.034 319.019C268.138 337.91 269.55 339.205 288.534 312.519M271.534 321.519C264.746 335.655 258.839 346.593 271.034 333.519M268.534 320.019C260.971 330.904 260.307 332.727 269.534 323.519M269.534 315.519C270.807 314.989 271.558 313.994 273.034 310.019M395.034 199.019C396.224 210.519 396.378 219.962 395.034 233.019C394.928 234.046 394.738 235.046 394.467 236.019M395.034 199.019C382.034 172.019 326.034 173.019 323.013 216.019M370.034 256.519C363.034 261.519 358.034 262.019 350.034 256.019M370.034 256.519C382.659 251.686 391.972 244.993 394.467 236.019M370.034 256.519C370.5 256.186 371.39 254.147 372.5 252.5C374.617 249.361 376.542 248.425 381.534 248.5M350.034 256.019C348.58 255.392 347.259 254.782 346.034 254.162M350.034 256.019L347 252C346 251 344.133 247.626 338.5 246.5M332.02 242.519C333.005 230.907 329.431 221.841 323.013 216.019M332.02 242.519C331.69 246.409 330.849 250.584 329.432 255.019M332.02 242.519C336.959 248.362 340.516 251.369 346.034 254.162M358.534 234.519V236.019M365.534 234.519V236.019M342.035 229.519C340.548 219.67 338.358 215.998 332.02 212.766C332.58 226.934 335.67 229.061 342.534 230.019M430.534 167.899C430.543 169.713 430.18 170.389 429.034 171.019M429.034 171.019C467.034 178.519 511.034 199.019 516.534 217.519C537.304 235.434 540.177 240.283 515.034 231.019C538.522 256.629 536.726 258.544 510.034 242.519C520.72 274.301 515.551 270.054 499.534 249.019C503.728 264.884 502.402 265.805 492.034 250.019C488.936 251.127 487.298 249.253 484.534 242.519C481.944 246.155 479.619 244.719 474.534 238.519C456.015 228.663 443.011 222.979 424.534 216.705M429.034 171.019C391.534 167.899 389.034 199.019 409.274 211.75M408.534 211.519C408.782 211.596 409.028 211.674 409.274 211.75M409.274 211.75C414.83 213.491 419.857 215.117 424.534 216.705M424.534 216.705C408.534 220.019 404.547 234.03 394.467 236.019M329.432 255.019C336.673 258.33 340.382 258.471 346.034 254.162M512.5 223.766C511.182 238.071 507.713 243.968 494.5 249.019M381.534 231.019C382.124 222.852 384.034 217.519 390.034 216.019C390.034 228.019 387.177 229.89 381.534 231.019Z" stroke="url(#paint2_linear_579_430)" stroke-width="3" stroke-linecap="round" stroke-linejoin="round"/>
</g>
<g filter="url(#filter3_f_579_430)">
<path d="M140.535 95.0188C130.535 93.5186 125.812 95.2432 122.035 102.019M140.535 95.0188C149.573 79.3616 155.781 72.7024 168.535 64.019M140.535 95.0188C139.937 96.5428 139.425 98.043 139 99.5191M122.035 102.019C124.852 102.866 126.736 103.052 131.535 102.019M122.035 102.019C114.257 102.019 109.229 105.019 106.951 111.019M105.535 120.019C95.0351 123.019 94.6163 128.599 101.535 140.519M105.535 120.019C118.096 116.735 124.567 113.544 134.535 104.019M105.535 120.019C105.535 116.504 106.007 113.504 106.951 111.019M101.535 140.519C115.435 131.23 123.216 126.35 137.442 108.519M101.535 140.519C96.4129 144.04 97.44 150.022 103.567 157.019M118.535 169.519C123.708 151.128 128.387 141.386 141.432 125.519M118.535 169.519C120.027 177.488 125.388 183.475 133.205 188.019M118.535 169.519C112.06 165.202 107.009 160.95 103.567 157.019M258.035 218.519C261.147 203.182 260.791 194.052 254.535 176.326M258.035 218.519C254.069 220.098 250.063 221.329 246.034 222.229M258.035 218.519C268.339 217.228 276.365 215.648 283.534 212.766M309.035 194.019C323.535 191.519 335.001 180.58 348.035 166.019M309.035 194.019C301.173 194.595 292.07 186.02 275.203 169.519M309.035 194.019C300.039 203.582 292.449 209.181 283.534 212.766M348.035 166.019C354.854 168.097 359.035 166.019 360.535 162.019M348.035 166.019L340.035 151.058M360.535 162.019C380.73 161.36 397.606 162.019 404.035 164.519C408.629 166.305 413.209 167.412 417.535 167.899M360.535 162.019C368.034 177.019 393.534 184.519 395.034 199.019M317.035 32.5188C303.535 25.019 283.035 23.0189 269.035 27.0188M317.035 32.5188C313.532 34.7423 311.548 35.9848 303.535 36.019M317.035 32.5188C345.408 36.6377 368.755 49.9711 388.609 72.519M269.035 27.0188C233.576 27.1285 215.125 29.0278 193.535 47.0191M269.035 27.0188C241.153 29.2968 228.504 34.1252 209.535 47.0191M269.035 27.0188C283.599 26.8786 291.454 27.844 303.535 36.019M193.535 47.0191C183.379 48.8097 177.927 52.6437 168.535 64.019M193.535 47.0191H209.535M168.535 64.019C155.572 81.4517 149.316 88.6971 139 99.5191M187.035 152.019C181.634 150.773 176.626 149.315 172.035 147.655M187.035 152.019C191.302 156.689 196.204 160.775 201.535 164.217M187.035 152.019C191.535 131.019 219.516 110.294 250.535 89.5191M290.535 157.019C286.076 162.249 280.883 166.392 275.203 169.519M290.535 157.019C307.599 147.795 330.875 152.61 340.035 151.058M290.535 157.019C288.289 124.625 285.489 109.832 275.203 95.0188M382.535 127.019C362.035 130.019 348.035 148.019 342.035 150.519C341.476 150.752 340.806 150.927 340.035 151.058M382.535 127.019C389.21 128.404 394.889 128.897 399.535 128.468M382.535 127.019C364.697 104.527 355.399 89.8863 333.535 79.0188M412.696 99.5191C423.348 115.555 431.674 134.434 435.035 138.019C438.405 141.613 440.675 144.96 442.01 148.019M412.696 99.5191C407.005 90.9524 400.651 83.1972 394.035 79.0188C392.256 76.7732 390.447 74.6066 388.609 72.519M412.696 99.5191C415.298 108.437 415.513 115.241 413.447 120.019M137.442 108.519C137.127 114.714 138.501 120.396 141.432 125.519M137.442 108.519C137.589 105.629 138.104 102.628 139 99.5191M141.432 125.519C142.799 127.909 144.504 130.177 146.535 132.319M133.205 188.019C135.787 166.153 138.467 154.352 150.535 136.036M133.205 188.019C139.733 196.857 149.124 204.044 162.035 208.789M150.535 136.036C156.084 140.606 163.305 144.498 172.035 147.655M150.535 136.036C149.087 134.843 147.752 133.604 146.535 132.319M162.035 208.789C160.67 185.161 162.303 171.802 172.035 147.655M162.035 208.789C169.622 214.183 178.447 218.013 189.035 219.247M189.035 219.247C187.704 196.51 187.51 183.876 201.535 164.217M189.035 219.247C198.957 223.643 209.824 225.45 221.535 223.766M201.535 164.217C210.486 169.997 220.646 173.962 231.035 175.824M221.535 223.766C231.492 214.634 234.744 205.936 231.035 175.824M221.535 223.766C229.688 224.511 237.905 224.045 246.034 222.229M231.035 175.824C238.878 177.23 246.851 177.439 254.535 176.326M254.535 176.326C261.802 175.273 268.81 173.039 275.203 169.519M413.447 120.019C423.745 134.459 429.462 142.787 442.01 148.019M413.447 120.019C411.28 125.034 406.601 127.816 399.535 128.468M442.01 148.019C448.07 161.91 434.827 169.847 417.535 167.899M399.535 128.468C403.298 145.692 405.815 155.12 417.535 167.899M146.535 132.319C178.083 87.8781 192.429 75.3381 215.035 64.019M215.035 64.019C215.734 57.3679 215.025 53.6398 209.535 47.0191M215.035 64.019C214.72 67.019 230.744 63.102 241.035 68.519M303.535 36.019C301.427 41.9272 303.535 46.2551 306.535 47.0191M306.535 47.0191C322.13 50.9903 329.875 54.747 341.035 65.519M306.535 47.0191C275.5 49.3256 261.849 54.7971 241.035 68.519M341.035 65.519C359.632 59.1583 370.07 60.5134 388.609 72.519M341.035 65.519C335.697 67.6604 334.161 70.7434 333.535 79.0188M333.535 79.0188C309.323 79.2082 296.7 83.3584 275.203 95.0188M275.203 95.0188C266.001 89.8768 250.535 92.0191 250.535 89.5191M250.535 89.5191C248.987 81.236 246.881 76.6268 241.035 68.519M106.951 111.019C83.535 116.019 69.035 108.519 49.035 117.519C45.1884 118.949 43.0145 119.501 39.035 119.019C35.5347 118.595 41.6431 123.579 46.035 124.019M45.0347 125.019C43.7238 127.862 30.7064 137.634 25.5347 139.019C22.0342 139.956 36.5287 139.631 45.5347 135.519M46.5342 137.019C42.0943 144.24 39.0658 146.47 33.5342 150.019C31.0342 151.623 43.8029 149.226 53.5342 145.519M56.0342 145.019C59.1413 144.249 59.8568 144.611 59.5342 146.519C58.3674 149.065 57.3586 150.009 55.0342 151.019C51.0342 152.757 63.7212 151.994 69.5342 149.019C74.9758 146.341 78.1273 145.542 84.5342 149.519C87.7559 151.519 90.5342 156.019 103.567 157.019M103.567 157.019C139.034 213.019 194.534 264.019 271.534 266.519C239.034 266.519 212.534 243.519 246.034 222.229M52.0342 119.019C52.6212 121.143 52.5255 122.172 51.0342 123.519M49.035 127.519C51.8129 129.006 52.1175 130.217 50.5342 133.019M52.5342 136.019C55.8625 137.195 57.201 138.115 57.0342 141.019M64.0342 144.519C66.2928 144.397 67.332 144.824 68.5342 147.019M283.534 212.766C299.151 206.035 313.931 207.779 323.013 216.019M289.534 311.019C312.057 289.856 324.389 270.796 329.432 255.019M292.034 228.019C282.034 263.019 247.034 288.019 268.534 318.019M279.034 295.519C284.034 291.519 292.034 295.519 288.534 302.019M279.034 299.019C270.095 320.135 267.279 328.484 287.034 304.019M275.034 319.019C268.138 337.91 269.55 339.205 288.534 312.519M271.534 321.519C264.746 335.655 258.839 346.593 271.034 333.519M268.534 320.019C260.971 330.904 260.307 332.727 269.534 323.519M269.534 315.519C270.807 314.989 271.558 313.994 273.034 310.019M395.034 199.019C396.224 210.519 396.378 219.962 395.034 233.019C394.928 234.046 394.738 235.046 394.467 236.019M395.034 199.019C382.034 172.019 326.034 173.019 323.013 216.019M370.034 256.519C363.034 261.519 358.034 262.019 350.034 256.019M370.034 256.519C382.659 251.686 391.972 244.993 394.467 236.019M370.034 256.519C370.5 256.186 371.39 254.147 372.5 252.5C374.617 249.361 376.542 248.425 381.534 248.5M350.034 256.019C348.58 255.392 347.259 254.782 346.034 254.162M350.034 256.019L347 252C346 251 344.133 247.626 338.5 246.5M332.02 242.519C333.005 230.907 329.431 221.841 323.013 216.019M332.02 242.519C331.69 246.409 330.849 250.584 329.432 255.019M332.02 242.519C336.959 248.362 340.516 251.369 346.034 254.162M358.534 234.519V236.019M365.534 234.519V236.019M342.035 229.519C340.548 219.67 338.358 215.998 332.02 212.766C332.58 226.934 335.67 229.061 342.534 230.019M430.534 167.899C430.543 169.713 430.18 170.389 429.034 171.019M429.034 171.019C467.034 178.519 511.034 199.019 516.534 217.519C537.304 235.434 540.177 240.283 515.034 231.019C538.522 256.629 536.726 258.544 510.034 242.519C520.72 274.301 515.551 270.054 499.534 249.019C503.728 264.884 502.402 265.805 492.034 250.019C488.936 251.127 487.298 249.253 484.534 242.519C481.944 246.155 479.619 244.719 474.534 238.519C456.015 228.663 443.011 222.979 424.534 216.705M429.034 171.019C391.534 167.899 389.034 199.019 409.274 211.75M408.534 211.519C408.782 211.596 409.028 211.674 409.274 211.75M409.274 211.75C414.83 213.491 419.857 215.117 424.534 216.705M424.534 216.705C408.534 220.019 404.547 234.03 394.467 236.019M329.432 255.019C336.673 258.33 340.382 258.471 346.034 254.162M512.5 223.766C511.182 238.071 507.713 243.968 494.5 249.019M381.534 231.019C382.124 222.852 384.034 217.519 390.034 216.019C390.034 228.019 387.177 229.89 381.534 231.019Z" stroke="url(#paint3_linear_579_430)" stroke-width="2" stroke-linecap="round" stroke-linejoin="round"/>
</g>
<g filter="url(#filter4_f_579_430)">
<path d="M140.535 95.0188C130.535 93.5186 125.812 95.2432 122.035 102.019M140.535 95.0188C149.573 79.3616 155.781 72.7024 168.535 64.019M140.535 95.0188C139.937 96.5428 139.425 98.043 139 99.5191M122.035 102.019C124.852 102.866 126.736 103.052 131.535 102.019M122.035 102.019C114.257 102.019 109.229 105.019 106.951 111.019M105.535 120.019C95.0351 123.019 94.6163 128.599 101.535 140.519M105.535 120.019C118.096 116.735 124.567 113.544 134.535 104.019M105.535 120.019C105.535 116.504 106.007 113.504 106.951 111.019M101.535 140.519C115.435 131.23 123.216 126.35 137.442 108.519M101.535 140.519C96.4129 144.04 97.44 150.022 103.567 157.019M118.535 169.519C123.708 151.128 128.387 141.386 141.432 125.519M118.535 169.519C120.027 177.488 125.388 183.475 133.205 188.019M118.535 169.519C112.06 165.202 107.009 160.95 103.567 157.019M258.035 218.519C261.147 203.182 260.791 194.052 254.535 176.326M258.035 218.519C254.069 220.098 250.063 221.329 246.034 222.229M258.035 218.519C268.339 217.228 276.365 215.648 283.534 212.766M309.035 194.019C323.535 191.519 335.001 180.58 348.035 166.019M309.035 194.019C301.173 194.595 292.07 186.02 275.203 169.519M309.035 194.019C300.039 203.582 292.449 209.181 283.534 212.766M348.035 166.019C354.854 168.097 359.035 166.019 360.535 162.019M348.035 166.019L340.035 151.058M360.535 162.019C380.73 161.36 397.606 162.019 404.035 164.519C408.629 166.305 413.209 167.412 417.535 167.899M360.535 162.019C368.034 177.019 393.534 184.519 395.034 199.019M317.035 32.5188C303.535 25.019 283.035 23.0189 269.035 27.0188M317.035 32.5188C313.532 34.7423 311.548 35.9848 303.535 36.019M317.035 32.5188C345.408 36.6377 368.755 49.9711 388.609 72.519M269.035 27.0188C233.576 27.1285 215.125 29.0278 193.535 47.0191M269.035 27.0188C241.153 29.2968 228.504 34.1252 209.535 47.0191M269.035 27.0188C283.599 26.8786 291.454 27.844 303.535 36.019M193.535 47.0191C183.379 48.8097 177.927 52.6437 168.535 64.019M193.535 47.0191H209.535M168.535 64.019C155.572 81.4517 149.316 88.6971 139 99.5191M187.035 152.019C181.634 150.773 176.626 149.315 172.035 147.655M187.035 152.019C191.302 156.689 196.204 160.775 201.535 164.217M187.035 152.019C191.535 131.019 219.516 110.294 250.535 89.5191M290.535 157.019C286.076 162.249 280.883 166.392 275.203 169.519M290.535 157.019C307.599 147.795 330.875 152.61 340.035 151.058M290.535 157.019C288.289 124.625 285.489 109.832 275.203 95.0188M382.535 127.019C362.035 130.019 348.035 148.019 342.035 150.519C341.476 150.752 340.806 150.927 340.035 151.058M382.535 127.019C389.21 128.404 394.889 128.897 399.535 128.468M382.535 127.019C364.697 104.527 355.399 89.8863 333.535 79.0188M412.696 99.5191C423.348 115.555 431.674 134.434 435.035 138.019C438.405 141.613 440.675 144.96 442.01 148.019M412.696 99.5191C407.005 90.9524 400.651 83.1972 394.035 79.0188C392.256 76.7732 390.447 74.6066 388.609 72.519M412.696 99.5191C415.298 108.437 415.513 115.241 413.447 120.019M137.442 108.519C137.127 114.714 138.501 120.396 141.432 125.519M137.442 108.519C137.589 105.629 138.104 102.628 139 99.5191M141.432 125.519C142.799 127.909 144.504 130.177 146.535 132.319M133.205 188.019C135.787 166.153 138.467 154.352 150.535 136.036M133.205 188.019C139.733 196.857 149.124 204.044 162.035 208.789M150.535 136.036C156.084 140.606 163.305 144.498 172.035 147.655M150.535 136.036C149.087 134.843 147.752 133.604 146.535 132.319M162.035 208.789C160.67 185.161 162.303 171.802 172.035 147.655M162.035 208.789C169.622 214.183 178.447 218.013 189.035 219.247M189.035 219.247C187.704 196.51 187.51 183.876 201.535 164.217M189.035 219.247C198.957 223.643 209.824 225.45 221.535 223.766M201.535 164.217C210.486 169.997 220.646 173.962 231.035 175.824M221.535 223.766C231.492 214.634 234.744 205.936 231.035 175.824M221.535 223.766C229.688 224.511 237.905 224.045 246.034 222.229M231.035 175.824C238.878 177.23 246.851 177.439 254.535 176.326M254.535 176.326C261.802 175.273 268.81 173.039 275.203 169.519M413.447 120.019C423.745 134.459 429.462 142.787 442.01 148.019M413.447 120.019C411.28 125.034 406.601 127.816 399.535 128.468M442.01 148.019C448.07 161.91 434.827 169.847 417.535 167.899M399.535 128.468C403.298 145.692 405.815 155.12 417.535 167.899M146.535 132.319C178.083 87.8781 192.429 75.3381 215.035 64.019M215.035 64.019C215.734 57.3679 215.025 53.6398 209.535 47.0191M215.035 64.019C214.72 67.019 230.744 63.102 241.035 68.519M303.535 36.019C301.427 41.9272 303.535 46.2551 306.535 47.0191M306.535 47.0191C322.13 50.9903 329.875 54.747 341.035 65.519M306.535 47.0191C275.5 49.3256 261.849 54.7971 241.035 68.519M341.035 65.519C359.632 59.1583 370.07 60.5134 388.609 72.519M341.035 65.519C335.697 67.6604 334.161 70.7434 333.535 79.0188M333.535 79.0188C309.323 79.2082 296.7 83.3584 275.203 95.0188M275.203 95.0188C266.001 89.8768 250.535 92.0191 250.535 89.5191M250.535 89.5191C248.987 81.236 246.881 76.6268 241.035 68.519M106.951 111.019C83.535 116.019 69.035 108.519 49.035 117.519C45.1884 118.949 43.0145 119.501 39.035 119.019C35.5347 118.595 41.6431 123.579 46.035 124.019M45.0347 125.019C43.7238 127.862 30.7064 137.634 25.5347 139.019C22.0342 139.956 36.5287 139.631 45.5347 135.519M46.5342 137.019C42.0943 144.24 39.0658 146.47 33.5342 150.019C31.0342 151.623 43.8029 149.226 53.5342 145.519M56.0342 145.019C59.1413 144.249 59.8568 144.611 59.5342 146.519C58.3674 149.065 57.3586 150.009 55.0342 151.019C51.0342 152.757 63.7212 151.994 69.5342 149.019C74.9758 146.341 78.1273 145.542 84.5342 149.519C87.7559 151.519 90.5342 156.019 103.567 157.019M103.567 157.019C139.034 213.019 194.534 264.019 271.534 266.519C239.034 266.519 212.534 243.519 246.034 222.229M52.0342 119.019C52.6212 121.143 52.5255 122.172 51.0342 123.519M49.035 127.519C51.8129 129.006 52.1175 130.217 50.5342 133.019M52.5342 136.019C55.8625 137.195 57.201 138.115 57.0342 141.019M64.0342 144.519C66.2928 144.397 67.332 144.824 68.5342 147.019M283.534 212.766C299.151 206.035 313.931 207.779 323.013 216.019M289.534 311.019C312.057 289.856 324.389 270.796 329.432 255.019M292.034 228.019C282.034 263.019 247.034 288.019 268.534 318.019M279.034 295.519C284.034 291.519 292.034 295.519 288.534 302.019M279.034 299.019C270.095 320.135 267.279 328.484 287.034 304.019M275.034 319.019C268.138 337.91 269.55 339.205 288.534 312.519M271.534 321.519C264.746 335.655 258.839 346.593 271.034 333.519M268.534 320.019C260.971 330.904 260.307 332.727 269.534 323.519M269.534 315.519C270.807 314.989 271.558 313.994 273.034 310.019M395.034 199.019C396.224 210.519 396.378 219.962 395.034 233.019C394.928 234.046 394.738 235.046 394.467 236.019M395.034 199.019C382.034 172.019 326.034 173.019 323.013 216.019M370.034 256.519C363.034 261.519 358.034 262.019 350.034 256.019M370.034 256.519C382.659 251.686 391.972 244.993 394.467 236.019M370.034 256.519C370.5 256.186 371.39 254.147 372.5 252.5C374.617 249.361 376.542 248.425 381.534 248.5M350.034 256.019C348.58 255.392 347.259 254.782 346.034 254.162M350.034 256.019L347 252C346 251 344.133 247.626 338.5 246.5M332.02 242.519C333.005 230.907 329.431 221.841 323.013 216.019M332.02 242.519C331.69 246.409 330.849 250.584 329.432 255.019M332.02 242.519C336.959 248.362 340.516 251.369 346.034 254.162M358.534 234.519V236.019M365.534 234.519V236.019M342.035 229.519C340.548 219.67 338.358 215.998 332.02 212.766C332.58 226.934 335.67 229.061 342.534 230.019M430.534 167.899C430.543 169.713 430.18 170.389 429.034 171.019M429.034 171.019C467.034 178.519 511.034 199.019 516.534 217.519C537.304 235.434 540.177 240.283 515.034 231.019C538.522 256.629 536.726 258.544 510.034 242.519C520.72 274.301 515.551 270.054 499.534 249.019C503.728 264.884 502.402 265.805 492.034 250.019C488.936 251.127 487.298 249.253 484.534 242.519C481.944 246.155 479.619 244.719 474.534 238.519C456.015 228.663 443.011 222.979 424.534 216.705M429.034 171.019C391.534 167.899 389.034 199.019 409.274 211.75M408.534 211.519C408.782 211.596 409.028 211.674 409.274 211.75M409.274 211.75C414.83 213.491 419.857 215.117 424.534 216.705M424.534 216.705C408.534 220.019 404.547 234.03 394.467 236.019M329.432 255.019C336.673 258.33 340.382 258.471 346.034 254.162M512.5 223.766C511.182 238.071 507.713 243.968 494.5 249.019M381.534 231.019C382.124 222.852 384.034 217.519 390.034 216.019C390.034 228.019 387.177 229.89 381.534 231.019Z" stroke="url(#paint4_linear_579_430)" stroke-width="2" stroke-linecap="round" stroke-linejoin="round"/>
</g>
<defs>
<filter id="filter0_f_579_430" x="-0.000610352" y="0.000976562" width="558.005" height="364.376" filterUnits="userSpaceOnUse" color-interpolation-filters="sRGB">
<feFlood flood-opacity="0" result="BackgroundImageFix"/>
<feBlend mode="normal" in="SourceGraphic" in2="BackgroundImageFix" result="shape"/>
<feGaussianBlur stdDeviation="10" result="effect1_foregroundBlur_579_430"/>
</filter>
<filter id="filter1_f_579_430" x="7.49976" y="7.50049" width="543.005" height="349.376" filterUnits="userSpaceOnUse" color-interpolation-filters="sRGB">
<feFlood flood-opacity="0" result="BackgroundImageFix"/>
<feBlend mode="normal" in="SourceGraphic" in2="BackgroundImageFix" result="shape"/>
<feGaussianBlur stdDeviation="7.5" result="effect1_foregroundBlur_579_430"/>
</filter>
<filter id="filter2_f_579_430" x="13.4999" y="13.5005" width="531.005" height="337.376" filterUnits="userSpaceOnUse" color-interpolation-filters="sRGB">
<feFlood flood-opacity="0" result="BackgroundImageFix"/>
<feBlend mode="normal" in="SourceGraphic" in2="BackgroundImageFix" result="shape"/>
<feGaussianBlur stdDeviation="5" result="effect1_foregroundBlur_579_430"/>
</filter>
<filter id="filter3_f_579_430" x="18.9999" y="19" width="520.005" height="326.377" filterUnits="userSpaceOnUse" color-interpolation-filters="sRGB">
<feFlood flood-opacity="0" result="BackgroundImageFix"/>
<feBlend mode="normal" in="SourceGraphic" in2="BackgroundImageFix" result="shape"/>
<feGaussianBlur stdDeviation="2.5" result="effect1_foregroundBlur_579_430"/>
</filter>
<filter id="filter4_f_579_430" x="22.9999" y="23" width="512.005" height="318.377" filterUnits="userSpaceOnUse" color-interpolation-filters="sRGB">
<feFlood flood-opacity="0" result="BackgroundImageFix"/>
<feBlend mode="normal" in="SourceGraphic" in2="BackgroundImageFix" result="shape"/>
<feGaussianBlur stdDeviation="0.5" result="effect1_foregroundBlur_579_430"/>
</filter>
<linearGradient id="paint0_linear_579_430" x1="279.003" y1="25" x2="279.003" y2="339.377" gradientUnits="userSpaceOnUse">
<stop stop-color="#DB00FF"/>
<stop offset="1" stop-color="#FF00B8"/>
</linearGradient>
<linearGradient id="paint1_linear_579_430" x1="279.003" y1="25" x2="279.003" y2="339.377" gradientUnits="userSpaceOnUse">
<stop stop-color="#DB00FF"/>
<stop offset="1" stop-color="#FF00B8"/>
</linearGradient>
<linearGradient id="paint2_linear_579_430" x1="279.003" y1="25" x2="279.003" y2="339.377" gradientUnits="userSpaceOnUse">
<stop stop-color="#DB00FF"/>
<stop offset="1" stop-color="#FF00B8"/>
</linearGradient>
<linearGradient id="paint3_linear_579_430" x1="279.003" y1="25" x2="279.003" y2="339.377" gradientUnits="userSpaceOnUse">
<stop stop-color="#F8D0FF"/>
<stop offset="1" stop-color="#FFBEED"/>
</linearGradient>
<linearGradient id="paint4_linear_579_430" x1="279.003" y1="25" x2="279.003" y2="339.377" gradientUnits="userSpaceOnUse">
<stop stop-color="white"/>
<stop offset="1" stop-color="white"/>
</linearGradient>
</defs>
</svg>
