<svg width="563" height="342" viewBox="0 0 563 342" fill="none" xmlns="http://www.w3.org/2000/svg">
<g filter="url(#filter0_f_579_424)">
<path d="M192.721 242.681C182.863 242.681 173.961 240.288 166.638 235.874M192.721 242.681C192.922 246.507 195.347 248.319 200.221 248.773M192.721 242.681C193.904 225.505 197.469 217.048 203.22 201.721M225.721 246.181C242.409 253 250.802 254.149 263.221 249.181M225.721 246.181C219.69 247.177 214.538 247.968 210.221 248.433M225.721 246.181C229.1 230.851 227.813 223.136 226.221 209.182M263.221 249.181C275.721 261.181 290.221 259.181 304.221 252.181M263.221 249.181C261.044 233.283 261.035 225.957 261.22 213.154M304.221 252.181C304.969 253.356 306.948 254.165 309.721 254.625M304.221 252.181C300.979 227.846 298.069 219.86 292.221 209.029M350.721 246.181C340.891 253.258 319.929 256.316 309.721 254.625M350.721 246.181C336.72 238.181 340.22 217.681 327.221 202.368M350.721 246.181C357.06 245.684 366.24 243.209 376.72 239.142M464.721 169.181C474.721 159.681 476.221 153.181 474.721 142.681M464.721 169.181C462.523 174.483 459.413 179.668 455.609 184.682M464.721 169.181C453.72 167.182 448.72 146.681 436.246 144.181M474.721 142.681C477.242 135.621 477.221 128.181 474.721 121.064M474.721 142.681C462.22 146.681 460.221 131.181 444.106 128.181M460.221 101.681C460.221 85.1808 445.221 69.6807 426.721 66.6807M460.221 101.681C464.289 104.907 467.608 108.447 470.17 112.181M460.221 101.681C452.173 106.665 447.847 108.062 440.22 109.855M426.721 66.6807C426.721 64.753 426.191 63.0291 425.221 61.4727M426.721 66.6807C423.192 67.4477 421.091 66.9692 417.221 65.1818M194.221 88.6817C180.786 97.7417 174.091 101.738 167.721 101.682C161.351 101.625 160.073 106.097 163.221 109.682M194.221 88.6817C203.142 74.6628 217.391 61.5533 233.721 52.0691M194.221 88.6817C193.37 89.865 192.537 91.046 191.721 92.2243M163.221 109.682C146.815 113.696 138.221 122.682 146.221 132.182M163.221 109.682C169.777 110.965 174.768 109.126 187.095 99.1812M146.221 132.182C135.721 139.182 131.721 152.182 142.221 161.182M146.221 132.182C157.274 134.532 163.347 133.19 173.848 124.182M142.221 161.182C136.221 175.182 135.253 193.749 146.221 191.682M142.221 161.182C127.721 157.681 121.423 161.217 112.721 172.681C103.262 178.841 97.8775 181.592 87.7209 181.681C71.7209 181.681 56.2248 184.857 41.2209 191.682M142.221 161.182C149.458 162.216 153.631 162.556 166.829 151.181M146.221 191.682C145.821 196.642 146.01 201.321 146.726 205.681M146.221 191.682C154.257 189.427 157.22 178.181 169.512 172.681M226.221 209.182C232.221 183.182 216.721 164.22 228.221 145.682M226.221 209.182C217.541 206.935 209.891 204.463 203.22 201.721M226.221 209.182C236.285 212.382 247.936 213.716 261.22 213.154M431.221 94.1818C422.689 84.2238 420.602 66.6807 417.221 65.1818M431.221 94.1818C406.293 82.854 393.142 78.9055 372.221 79.1818M431.221 94.1818C435.103 99.9193 438.093 105.108 440.22 109.855M417.221 65.1818C401.069 58.0201 392.934 53.6077 379.721 45.1818M166.638 154.682C174.721 139.182 191.221 139.182 206.721 124.182M166.638 154.682C166.668 153.527 166.732 152.36 166.829 151.181M166.638 154.682C166.464 161.292 167.392 167.267 169.512 172.681M206.721 124.182C211.355 133.169 215.807 137.913 228.221 145.682M206.721 124.182C203.808 111.455 205.594 105.008 212.221 94.1818M228.221 145.682C240.242 141.59 248.13 141.003 263.721 142.182M263.721 142.182C266.579 129.849 270.82 124.651 281.221 117.182M263.721 142.182C279.221 169.181 292.221 178.682 292.221 209.029M281.221 117.182C292.575 118.346 299.524 117.315 313.221 111.682M281.221 117.182C277.221 101.681 264.721 88.1818 243.721 76.6818M313.221 111.682C316.423 102.088 320.663 98.672 330.221 94.1818M313.221 111.682C338.952 134.423 347.794 151.718 352.721 191.39M330.221 94.1818C340.918 90.6035 347.542 89.3871 361.721 90.1818M330.221 94.1818C318.199 74.513 309.96 65.6507 291.221 55.6818M361.721 90.1818C363.515 84.5659 366.198 82.3829 372.221 79.1818M361.721 90.1818C382.431 110.799 392.686 125.382 405.221 164.22M372.221 79.1818C361.685 61.2719 353.946 53.6002 337.221 43.6808M367.721 38.1901L337.221 43.6808M367.721 38.1901C345.547 29.605 316.064 25.7496 292.721 33.4548M367.721 38.1901C369.967 39.0598 372.139 39.9781 374.221 40.9378M337.221 43.6808L314.221 44.6818M292.721 33.4548C289.601 34.4847 286.59 35.7213 283.721 37.1808C267.054 37.1808 249.425 42.9486 233.721 52.0691M292.721 33.4548C304.701 34.9385 309.232 37.5472 314.221 44.6818M314.221 44.6818L291.221 55.6818M291.221 55.6818L257.721 63.6818M257.721 63.6818L233.721 52.0691M257.721 63.6818L243.721 76.6818M243.721 76.6818L212.221 94.1818M212.221 94.1818L191.721 92.2243M191.721 92.2243C190.108 94.5545 188.566 96.8742 187.095 99.1812M292.221 209.029C281.042 211.38 270.714 212.751 261.22 213.154M292.221 209.029C305.325 207.55 317.045 205.331 327.221 202.368M352.721 191.39C345.833 195.78 337.281 199.438 327.221 202.368M352.721 191.39C354.9 190.914 357.066 190.376 359.22 189.772M405.221 164.22C404.238 164.704 403.238 165.191 402.221 165.682C398.013 169.583 393.672 173.007 389.22 176M405.221 164.22C409.174 162.273 412.843 160.377 416.22 158.505M166.638 235.874C174.024 251.388 177.26 261.067 189.721 271.682C203.221 283.182 188.721 255.182 200.221 248.773M166.638 235.874C156.178 229.57 148.938 219.144 146.726 205.681M200.221 248.773C202.837 249.017 206.159 248.87 210.221 248.433M200.221 248.773C189.721 263.682 264.221 283.013 265.876 271.682M210.221 248.433C222.774 260.37 233.519 264.467 264.221 263.682M253.721 255.182C262.504 258.277 266.141 262.646 265.876 271.682M300.221 308.182C274.221 316.182 258.393 306.182 263.221 287.182C264.832 280.843 265.756 275.782 265.876 271.682M294.721 304.682C294.582 298.865 296 297.36 303.221 300.182M297.221 305.682C301.699 306.514 303.286 308.712 304.221 316.182C304.221 320.182 307.932 308.574 305.221 302.182M308.721 301.182C307.323 297.783 308.168 296.548 312.221 295.682M310.721 307.182C314.694 304.616 317.879 305.074 327.221 313.182C330.703 316.204 326.607 305.628 319.221 300.86M315.721 299.182C316.951 299.57 318.122 300.151 319.221 300.86M309.721 254.625C308.289 257.369 306.95 259.885 305.795 262.181M319.221 300.86C317.221 292.682 310.721 288.682 306.721 287.182C308.556 283.844 308.721 281.056 305.221 279.182C299.74 276.247 301.493 270.735 305.795 262.181M455.609 184.682C463.431 184.876 467.889 184.145 476.721 172.682M455.609 184.682C439.721 228.181 358.221 272.681 305.795 262.181M455.609 184.682C451.798 189.705 447.29 194.556 442.304 199.182M481.221 156.182C476.521 170.762 473.529 179.354 482.721 177.682M485.221 167.182C477.721 181.682 490.221 193.182 494.721 211.182M474.721 121.064C500.221 113.682 521.721 128.182 530.721 184.682M474.721 121.064C473.654 118.026 472.135 115.046 470.17 112.181M498.221 213.682C514.221 215.682 525.721 210.182 529.221 186.182M494.721 212.182C496.221 237.182 499.546 239.662 504.721 215.182M508.721 215.182C513.975 248.964 515.679 239.453 518.221 211.182M521.221 209.182C531.868 233.573 532.844 230.217 527.221 199.182M527.721 197.182C538.291 213.629 542.643 219.301 531.221 186.182M374.221 40.9378C376.133 41.819 377.97 42.7352 379.721 43.6808C397.722 48.824 419.398 52.1302 425.221 61.4727M374.221 40.9378C397.221 15.1811 429.721 23.1809 425.221 61.4727M425.221 61.4727C430.804 58.5445 434.015 56.9662 441.721 55.6811C447.221 47.1811 454.721 46.1811 465.721 51.6811C484.221 51.6811 491.221 49.1811 488.221 82.6811C488.221 84.5701 486.418 86.4986 484.221 88.1423M480.221 90.6811C481.5 89.9774 482.928 89.1091 484.221 88.1423M484.221 88.1423C481.085 98.3059 478.751 103.811 470.17 112.181M130.221 181.681C131.135 187.962 131.905 192.786 134.273 196.681M146.726 205.681C140.172 203.211 136.51 200.36 134.273 196.681M117.221 189.181C117.881 192.646 119.031 195.349 120.583 197.181M134.273 196.681C128.543 201.036 123.734 200.902 120.583 197.181M44.2209 204.681C79.7209 232.681 101.221 202.681 120.583 197.181M46.7209 195.181C46.0713 198.856 44.7995 200.388 51.2209 208.181M44.2209 198.181C21.6466 200.086 19.6242 200.812 44.2209 201.181M41.2209 194.181C22.0817 192.326 17.2394 192.28 41.2209 197.681M38.7197 192.181C24.1932 188.483 19.7967 187.498 35.7197 192.681M187.095 99.1812C181.647 107.731 177.194 116.104 173.848 124.182M173.848 124.182C169.925 133.652 167.525 142.717 166.829 151.181M169.512 172.681C174.305 184.928 185.194 194.311 203.22 201.721M359.22 189.772C362.593 210.159 367.22 222.181 376.72 239.142M359.22 189.772C369.601 186.861 379.668 182.422 389.22 176M376.72 239.142C389.579 234.151 404.393 226.761 418.311 217.681M389.22 176C403.568 186.385 410.714 193.979 418.311 217.681M418.311 217.681C426.869 212.098 435.087 205.877 442.304 199.182M416.22 158.505C426.833 166.71 432.766 171.633 442.304 199.182M416.22 158.505C424.839 153.726 431.555 149.103 436.246 144.181M436.246 144.181C440.908 139.291 443.568 134.105 444.106 128.181M444.106 128.181C444.596 122.795 443.331 116.798 440.22 109.855M480.721 80.6811C480.692 76.2693 482.721 73.1811 486.721 73.1811C486.031 78.4266 484.331 79.5307 480.721 80.6811Z" stroke="url(#paint0_linear_579_424)" stroke-width="10" stroke-linecap="round" stroke-linejoin="round"/>
</g>
<g filter="url(#filter1_f_579_424)">
<path d="M192.721 242.681C182.863 242.681 173.961 240.288 166.638 235.874M192.721 242.681C192.922 246.507 195.347 248.319 200.221 248.773M192.721 242.681C193.904 225.505 197.469 217.048 203.22 201.721M225.721 246.181C242.409 253 250.802 254.149 263.221 249.181M225.721 246.181C219.69 247.177 214.538 247.968 210.221 248.433M225.721 246.181C229.1 230.851 227.813 223.136 226.221 209.182M263.221 249.181C275.721 261.181 290.221 259.181 304.221 252.181M263.221 249.181C261.044 233.283 261.035 225.957 261.22 213.154M304.221 252.181C304.969 253.356 306.948 254.165 309.721 254.625M304.221 252.181C300.979 227.846 298.069 219.86 292.221 209.029M350.721 246.181C340.891 253.258 319.929 256.316 309.721 254.625M350.721 246.181C336.72 238.181 340.22 217.681 327.221 202.368M350.721 246.181C357.06 245.684 366.24 243.209 376.72 239.142M464.721 169.181C474.721 159.681 476.221 153.181 474.721 142.681M464.721 169.181C462.523 174.483 459.413 179.668 455.609 184.682M464.721 169.181C453.72 167.182 448.72 146.681 436.246 144.181M474.721 142.681C477.242 135.621 477.221 128.181 474.721 121.064M474.721 142.681C462.22 146.681 460.221 131.181 444.106 128.181M460.221 101.681C460.221 85.1808 445.221 69.6807 426.721 66.6807M460.221 101.681C464.289 104.907 467.608 108.447 470.17 112.181M460.221 101.681C452.173 106.665 447.847 108.062 440.22 109.855M426.721 66.6807C426.721 64.753 426.191 63.0291 425.221 61.4727M426.721 66.6807C423.192 67.4477 421.091 66.9692 417.221 65.1818M194.221 88.6817C180.786 97.7417 174.091 101.738 167.721 101.682C161.351 101.625 160.073 106.097 163.221 109.682M194.221 88.6817C203.142 74.6628 217.391 61.5533 233.721 52.0691M194.221 88.6817C193.37 89.865 192.537 91.046 191.721 92.2243M163.221 109.682C146.815 113.696 138.221 122.682 146.221 132.182M163.221 109.682C169.777 110.965 174.768 109.126 187.095 99.1812M146.221 132.182C135.721 139.182 131.721 152.182 142.221 161.182M146.221 132.182C157.274 134.532 163.347 133.19 173.848 124.182M142.221 161.182C136.221 175.182 135.253 193.749 146.221 191.682M142.221 161.182C127.721 157.681 121.423 161.217 112.721 172.681C103.262 178.841 97.8775 181.592 87.7209 181.681C71.7209 181.681 56.2248 184.857 41.2209 191.682M142.221 161.182C149.458 162.216 153.631 162.556 166.829 151.181M146.221 191.682C145.821 196.642 146.01 201.321 146.726 205.681M146.221 191.682C154.257 189.427 157.22 178.181 169.512 172.681M226.221 209.182C232.221 183.182 216.721 164.22 228.221 145.682M226.221 209.182C217.541 206.935 209.891 204.463 203.22 201.721M226.221 209.182C236.285 212.382 247.936 213.716 261.22 213.154M431.221 94.1818C422.689 84.2238 420.602 66.6807 417.221 65.1818M431.221 94.1818C406.293 82.854 393.142 78.9055 372.221 79.1818M431.221 94.1818C435.103 99.9193 438.093 105.108 440.22 109.855M417.221 65.1818C401.069 58.0201 392.934 53.6077 379.721 45.1818M166.638 154.682C174.721 139.182 191.221 139.182 206.721 124.182M166.638 154.682C166.668 153.527 166.732 152.36 166.829 151.181M166.638 154.682C166.464 161.292 167.392 167.267 169.512 172.681M206.721 124.182C211.355 133.169 215.807 137.913 228.221 145.682M206.721 124.182C203.808 111.455 205.594 105.008 212.221 94.1818M228.221 145.682C240.242 141.59 248.13 141.003 263.721 142.182M263.721 142.182C266.579 129.849 270.82 124.651 281.221 117.182M263.721 142.182C279.221 169.181 292.221 178.682 292.221 209.029M281.221 117.182C292.575 118.346 299.524 117.315 313.221 111.682M281.221 117.182C277.221 101.681 264.721 88.1818 243.721 76.6818M313.221 111.682C316.423 102.088 320.663 98.672 330.221 94.1818M313.221 111.682C338.952 134.423 347.794 151.718 352.721 191.39M330.221 94.1818C340.918 90.6035 347.542 89.3871 361.721 90.1818M330.221 94.1818C318.199 74.513 309.96 65.6507 291.221 55.6818M361.721 90.1818C363.515 84.5659 366.198 82.3829 372.221 79.1818M361.721 90.1818C382.431 110.799 392.686 125.382 405.221 164.22M372.221 79.1818C361.685 61.2719 353.946 53.6002 337.221 43.6808M367.721 38.1901L337.221 43.6808M367.721 38.1901C345.547 29.605 316.064 25.7496 292.721 33.4548M367.721 38.1901C369.967 39.0598 372.139 39.9781 374.221 40.9378M337.221 43.6808L314.221 44.6818M292.721 33.4548C289.601 34.4847 286.59 35.7213 283.721 37.1808C267.054 37.1808 249.425 42.9486 233.721 52.0691M292.721 33.4548C304.701 34.9385 309.232 37.5472 314.221 44.6818M314.221 44.6818L291.221 55.6818M291.221 55.6818L257.721 63.6818M257.721 63.6818L233.721 52.0691M257.721 63.6818L243.721 76.6818M243.721 76.6818L212.221 94.1818M212.221 94.1818L191.721 92.2243M191.721 92.2243C190.108 94.5545 188.566 96.8742 187.095 99.1812M292.221 209.029C281.042 211.38 270.714 212.751 261.22 213.154M292.221 209.029C305.325 207.55 317.045 205.331 327.221 202.368M352.721 191.39C345.833 195.78 337.281 199.438 327.221 202.368M352.721 191.39C354.9 190.914 357.066 190.376 359.22 189.772M405.221 164.22C404.238 164.704 403.238 165.191 402.221 165.682C398.013 169.583 393.672 173.007 389.22 176M405.221 164.22C409.174 162.273 412.843 160.377 416.22 158.505M166.638 235.874C174.024 251.388 177.26 261.067 189.721 271.682C203.221 283.182 188.721 255.182 200.221 248.773M166.638 235.874C156.178 229.57 148.938 219.144 146.726 205.681M200.221 248.773C202.837 249.017 206.159 248.87 210.221 248.433M200.221 248.773C189.721 263.682 264.221 283.013 265.876 271.682M210.221 248.433C222.774 260.37 233.519 264.467 264.221 263.682M253.721 255.182C262.504 258.277 266.141 262.646 265.876 271.682M300.221 308.182C274.221 316.182 258.393 306.182 263.221 287.182C264.832 280.843 265.756 275.782 265.876 271.682M294.721 304.682C294.582 298.865 296 297.36 303.221 300.182M297.221 305.682C301.699 306.514 303.286 308.712 304.221 316.182C304.221 320.182 307.932 308.574 305.221 302.182M308.721 301.182C307.323 297.783 308.168 296.548 312.221 295.682M310.721 307.182C314.694 304.616 317.879 305.074 327.221 313.182C330.703 316.204 326.607 305.628 319.221 300.86M315.721 299.182C316.951 299.57 318.122 300.151 319.221 300.86M309.721 254.625C308.289 257.369 306.95 259.885 305.795 262.181M319.221 300.86C317.221 292.682 310.721 288.682 306.721 287.182C308.556 283.844 308.721 281.056 305.221 279.182C299.74 276.247 301.493 270.735 305.795 262.181M455.609 184.682C463.431 184.876 467.889 184.145 476.721 172.682M455.609 184.682C439.721 228.181 358.221 272.681 305.795 262.181M455.609 184.682C451.798 189.705 447.29 194.556 442.304 199.182M481.221 156.182C476.521 170.762 473.529 179.354 482.721 177.682M485.221 167.182C477.721 181.682 490.221 193.182 494.721 211.182M474.721 121.064C500.221 113.682 521.721 128.182 530.721 184.682M474.721 121.064C473.654 118.026 472.135 115.046 470.17 112.181M498.221 213.682C514.221 215.682 525.721 210.182 529.221 186.182M494.721 212.182C496.221 237.182 499.546 239.662 504.721 215.182M508.721 215.182C513.975 248.964 515.679 239.453 518.221 211.182M521.221 209.182C531.868 233.573 532.844 230.217 527.221 199.182M527.721 197.182C538.291 213.629 542.643 219.301 531.221 186.182M374.221 40.9378C376.133 41.819 377.97 42.7352 379.721 43.6808C397.722 48.824 419.398 52.1302 425.221 61.4727M374.221 40.9378C397.221 15.1811 429.721 23.1809 425.221 61.4727M425.221 61.4727C430.804 58.5445 434.015 56.9662 441.721 55.6811C447.221 47.1811 454.721 46.1811 465.721 51.6811C484.221 51.6811 491.221 49.1811 488.221 82.6811C488.221 84.5701 486.418 86.4986 484.221 88.1423M480.221 90.6811C481.5 89.9774 482.928 89.1091 484.221 88.1423M484.221 88.1423C481.085 98.3059 478.751 103.811 470.17 112.181M130.221 181.681C131.135 187.962 131.905 192.786 134.273 196.681M146.726 205.681C140.172 203.211 136.51 200.36 134.273 196.681M117.221 189.181C117.881 192.646 119.031 195.349 120.583 197.181M134.273 196.681C128.543 201.036 123.734 200.902 120.583 197.181M44.2209 204.681C79.7209 232.681 101.221 202.681 120.583 197.181M46.7209 195.181C46.0713 198.856 44.7995 200.388 51.2209 208.181M44.2209 198.181C21.6466 200.086 19.6242 200.812 44.2209 201.181M41.2209 194.181C22.0817 192.326 17.2394 192.28 41.2209 197.681M38.7197 192.181C24.1932 188.483 19.7967 187.498 35.7197 192.681M187.095 99.1812C181.647 107.731 177.194 116.104 173.848 124.182M173.848 124.182C169.925 133.652 167.525 142.717 166.829 151.181M169.512 172.681C174.305 184.928 185.194 194.311 203.22 201.721M359.22 189.772C362.593 210.159 367.22 222.181 376.72 239.142M359.22 189.772C369.601 186.861 379.668 182.422 389.22 176M376.72 239.142C389.579 234.151 404.393 226.761 418.311 217.681M389.22 176C403.568 186.385 410.714 193.979 418.311 217.681M418.311 217.681C426.869 212.098 435.087 205.877 442.304 199.182M416.22 158.505C426.833 166.71 432.766 171.633 442.304 199.182M416.22 158.505C424.839 153.726 431.555 149.103 436.246 144.181M436.246 144.181C440.908 139.291 443.568 134.105 444.106 128.181M444.106 128.181C444.596 122.795 443.331 116.798 440.22 109.855M480.721 80.6811C480.692 76.2693 482.721 73.1811 486.721 73.1811C486.031 78.4266 484.331 79.5307 480.721 80.6811Z" stroke="url(#paint1_linear_579_424)" stroke-width="5" stroke-linecap="round" stroke-linejoin="round"/>
</g>
<g filter="url(#filter2_f_579_424)">
<path d="M192.721 242.681C182.863 242.681 173.961 240.288 166.638 235.874M192.721 242.681C192.922 246.507 195.347 248.319 200.221 248.773M192.721 242.681C193.904 225.505 197.469 217.048 203.22 201.721M225.721 246.181C242.409 253 250.802 254.149 263.221 249.181M225.721 246.181C219.69 247.177 214.538 247.968 210.221 248.433M225.721 246.181C229.1 230.851 227.813 223.136 226.221 209.182M263.221 249.181C275.721 261.181 290.221 259.181 304.221 252.181M263.221 249.181C261.044 233.283 261.035 225.957 261.22 213.154M304.221 252.181C304.969 253.356 306.948 254.165 309.721 254.625M304.221 252.181C300.979 227.846 298.069 219.86 292.221 209.029M350.721 246.181C340.891 253.258 319.929 256.316 309.721 254.625M350.721 246.181C336.72 238.181 340.22 217.681 327.221 202.368M350.721 246.181C357.06 245.684 366.24 243.209 376.72 239.142M464.721 169.181C474.721 159.681 476.221 153.181 474.721 142.681M464.721 169.181C462.523 174.483 459.413 179.668 455.609 184.682M464.721 169.181C453.72 167.182 448.72 146.681 436.246 144.181M474.721 142.681C477.242 135.621 477.221 128.181 474.721 121.064M474.721 142.681C462.22 146.681 460.221 131.181 444.106 128.181M460.221 101.681C460.221 85.1808 445.221 69.6807 426.721 66.6807M460.221 101.681C464.289 104.907 467.608 108.447 470.17 112.181M460.221 101.681C452.173 106.665 447.847 108.062 440.22 109.855M426.721 66.6807C426.721 64.753 426.191 63.0291 425.221 61.4727M426.721 66.6807C423.192 67.4477 421.091 66.9692 417.221 65.1818M194.221 88.6817C180.786 97.7417 174.091 101.738 167.721 101.682C161.351 101.625 160.073 106.097 163.221 109.682M194.221 88.6817C203.142 74.6628 217.391 61.5533 233.721 52.0691M194.221 88.6817C193.37 89.865 192.537 91.046 191.721 92.2243M163.221 109.682C146.815 113.696 138.221 122.682 146.221 132.182M163.221 109.682C169.777 110.965 174.768 109.126 187.095 99.1812M146.221 132.182C135.721 139.182 131.721 152.182 142.221 161.182M146.221 132.182C157.274 134.532 163.347 133.19 173.848 124.182M142.221 161.182C136.221 175.182 135.253 193.749 146.221 191.682M142.221 161.182C127.721 157.681 121.423 161.217 112.721 172.681C103.262 178.841 97.8775 181.592 87.7209 181.681C71.7209 181.681 56.2248 184.857 41.2209 191.682M142.221 161.182C149.458 162.216 153.631 162.556 166.829 151.181M146.221 191.682C145.821 196.642 146.01 201.321 146.726 205.681M146.221 191.682C154.257 189.427 157.22 178.181 169.512 172.681M226.221 209.182C232.221 183.182 216.721 164.22 228.221 145.682M226.221 209.182C217.541 206.935 209.891 204.463 203.22 201.721M226.221 209.182C236.285 212.382 247.936 213.716 261.22 213.154M431.221 94.1818C422.689 84.2238 420.602 66.6807 417.221 65.1818M431.221 94.1818C406.293 82.854 393.142 78.9055 372.221 79.1818M431.221 94.1818C435.103 99.9193 438.093 105.108 440.22 109.855M417.221 65.1818C401.069 58.0201 392.934 53.6077 379.721 45.1818M166.638 154.682C174.721 139.182 191.221 139.182 206.721 124.182M166.638 154.682C166.668 153.527 166.732 152.36 166.829 151.181M166.638 154.682C166.464 161.292 167.392 167.267 169.512 172.681M206.721 124.182C211.355 133.169 215.807 137.913 228.221 145.682M206.721 124.182C203.808 111.455 205.594 105.008 212.221 94.1818M228.221 145.682C240.242 141.59 248.13 141.003 263.721 142.182M263.721 142.182C266.579 129.849 270.82 124.651 281.221 117.182M263.721 142.182C279.221 169.181 292.221 178.682 292.221 209.029M281.221 117.182C292.575 118.346 299.524 117.315 313.221 111.682M281.221 117.182C277.221 101.681 264.721 88.1818 243.721 76.6818M313.221 111.682C316.423 102.088 320.663 98.672 330.221 94.1818M313.221 111.682C338.952 134.423 347.794 151.718 352.721 191.39M330.221 94.1818C340.918 90.6035 347.542 89.3871 361.721 90.1818M330.221 94.1818C318.199 74.513 309.96 65.6507 291.221 55.6818M361.721 90.1818C363.515 84.5659 366.198 82.3829 372.221 79.1818M361.721 90.1818C382.431 110.799 392.686 125.382 405.221 164.22M372.221 79.1818C361.685 61.2719 353.946 53.6002 337.221 43.6808M367.721 38.1901L337.221 43.6808M367.721 38.1901C345.547 29.605 316.064 25.7496 292.721 33.4548M367.721 38.1901C369.967 39.0598 372.139 39.9781 374.221 40.9378M337.221 43.6808L314.221 44.6818M292.721 33.4548C289.601 34.4847 286.59 35.7213 283.721 37.1808C267.054 37.1808 249.425 42.9486 233.721 52.0691M292.721 33.4548C304.701 34.9385 309.232 37.5472 314.221 44.6818M314.221 44.6818L291.221 55.6818M291.221 55.6818L257.721 63.6818M257.721 63.6818L233.721 52.0691M257.721 63.6818L243.721 76.6818M243.721 76.6818L212.221 94.1818M212.221 94.1818L191.721 92.2243M191.721 92.2243C190.108 94.5545 188.566 96.8742 187.095 99.1812M292.221 209.029C281.042 211.38 270.714 212.751 261.22 213.154M292.221 209.029C305.325 207.55 317.045 205.331 327.221 202.368M352.721 191.39C345.833 195.78 337.281 199.438 327.221 202.368M352.721 191.39C354.9 190.914 357.066 190.376 359.22 189.772M405.221 164.22C404.238 164.704 403.238 165.191 402.221 165.682C398.013 169.583 393.672 173.007 389.22 176M405.221 164.22C409.174 162.273 412.843 160.377 416.22 158.505M166.638 235.874C174.024 251.388 177.26 261.067 189.721 271.682C203.221 283.182 188.721 255.182 200.221 248.773M166.638 235.874C156.178 229.57 148.938 219.144 146.726 205.681M200.221 248.773C202.837 249.017 206.159 248.87 210.221 248.433M200.221 248.773C189.721 263.682 264.221 283.013 265.876 271.682M210.221 248.433C222.774 260.37 233.519 264.467 264.221 263.682M253.721 255.182C262.504 258.277 266.141 262.646 265.876 271.682M300.221 308.182C274.221 316.182 258.393 306.182 263.221 287.182C264.832 280.843 265.756 275.782 265.876 271.682M294.721 304.682C294.582 298.865 296 297.36 303.221 300.182M297.221 305.682C301.699 306.514 303.286 308.712 304.221 316.182C304.221 320.182 307.932 308.574 305.221 302.182M308.721 301.182C307.323 297.783 308.168 296.548 312.221 295.682M310.721 307.182C314.694 304.616 317.879 305.074 327.221 313.182C330.703 316.204 326.607 305.628 319.221 300.86M315.721 299.182C316.951 299.57 318.122 300.151 319.221 300.86M309.721 254.625C308.289 257.369 306.95 259.885 305.795 262.181M319.221 300.86C317.221 292.682 310.721 288.682 306.721 287.182C308.556 283.844 308.721 281.056 305.221 279.182C299.74 276.247 301.493 270.735 305.795 262.181M455.609 184.682C463.431 184.876 467.889 184.145 476.721 172.682M455.609 184.682C439.721 228.181 358.221 272.681 305.795 262.181M455.609 184.682C451.798 189.705 447.29 194.556 442.304 199.182M481.221 156.182C476.521 170.762 473.529 179.354 482.721 177.682M485.221 167.182C477.721 181.682 490.221 193.182 494.721 211.182M474.721 121.064C500.221 113.682 521.721 128.182 530.721 184.682M474.721 121.064C473.654 118.026 472.135 115.046 470.17 112.181M498.221 213.682C514.221 215.682 525.721 210.182 529.221 186.182M494.721 212.182C496.221 237.182 499.546 239.662 504.721 215.182M508.721 215.182C513.975 248.964 515.679 239.453 518.221 211.182M521.221 209.182C531.868 233.573 532.844 230.217 527.221 199.182M527.721 197.182C538.291 213.629 542.643 219.301 531.221 186.182M374.221 40.9378C376.133 41.819 377.97 42.7352 379.721 43.6808C397.722 48.824 419.398 52.1302 425.221 61.4727M374.221 40.9378C397.221 15.1811 429.721 23.1809 425.221 61.4727M425.221 61.4727C430.804 58.5445 434.015 56.9662 441.721 55.6811C447.221 47.1811 454.721 46.1811 465.721 51.6811C484.221 51.6811 491.221 49.1811 488.221 82.6811C488.221 84.5701 486.418 86.4986 484.221 88.1423M480.221 90.6811C481.5 89.9774 482.928 89.1091 484.221 88.1423M484.221 88.1423C481.085 98.3059 478.751 103.811 470.17 112.181M130.221 181.681C131.135 187.962 131.905 192.786 134.273 196.681M146.726 205.681C140.172 203.211 136.51 200.36 134.273 196.681M117.221 189.181C117.881 192.646 119.031 195.349 120.583 197.181M134.273 196.681C128.543 201.036 123.734 200.902 120.583 197.181M44.2209 204.681C79.7209 232.681 101.221 202.681 120.583 197.181M46.7209 195.181C46.0713 198.856 44.7995 200.388 51.2209 208.181M44.2209 198.181C21.6466 200.086 19.6242 200.812 44.2209 201.181M41.2209 194.181C22.0817 192.326 17.2394 192.28 41.2209 197.681M38.7197 192.181C24.1932 188.483 19.7967 187.498 35.7197 192.681M187.095 99.1812C181.647 107.731 177.194 116.104 173.848 124.182M173.848 124.182C169.925 133.652 167.525 142.717 166.829 151.181M169.512 172.681C174.305 184.928 185.194 194.311 203.22 201.721M359.22 189.772C362.593 210.159 367.22 222.181 376.72 239.142M359.22 189.772C369.601 186.861 379.668 182.422 389.22 176M376.72 239.142C389.579 234.151 404.393 226.761 418.311 217.681M389.22 176C403.568 186.385 410.714 193.979 418.311 217.681M418.311 217.681C426.869 212.098 435.087 205.877 442.304 199.182M416.22 158.505C426.833 166.71 432.766 171.633 442.304 199.182M416.22 158.505C424.839 153.726 431.555 149.103 436.246 144.181M436.246 144.181C440.908 139.291 443.568 134.105 444.106 128.181M444.106 128.181C444.596 122.795 443.331 116.798 440.22 109.855M480.721 80.6811C480.692 76.2693 482.721 73.1811 486.721 73.1811C486.031 78.4266 484.331 79.5307 480.721 80.6811Z" stroke="url(#paint2_linear_579_424)" stroke-width="3" stroke-linecap="round" stroke-linejoin="round"/>
</g>
<g filter="url(#filter3_f_579_424)">
<path d="M192.721 242.681C182.863 242.681 173.961 240.288 166.638 235.874M192.721 242.681C192.922 246.507 195.347 248.319 200.221 248.773M192.721 242.681C193.904 225.505 197.469 217.048 203.22 201.721M225.721 246.181C242.409 253 250.802 254.149 263.221 249.181M225.721 246.181C219.69 247.177 214.538 247.968 210.221 248.433M225.721 246.181C229.1 230.851 227.813 223.136 226.221 209.182M263.221 249.181C275.721 261.181 290.221 259.181 304.221 252.181M263.221 249.181C261.044 233.283 261.035 225.957 261.22 213.154M304.221 252.181C304.969 253.356 306.948 254.165 309.721 254.625M304.221 252.181C300.979 227.846 298.069 219.86 292.221 209.029M350.721 246.181C340.891 253.258 319.929 256.316 309.721 254.625M350.721 246.181C336.72 238.181 340.22 217.681 327.221 202.368M350.721 246.181C357.06 245.684 366.24 243.209 376.72 239.142M464.721 169.181C474.721 159.681 476.221 153.181 474.721 142.681M464.721 169.181C462.523 174.483 459.413 179.668 455.609 184.682M464.721 169.181C453.72 167.182 448.72 146.681 436.246 144.181M474.721 142.681C477.242 135.621 477.221 128.181 474.721 121.064M474.721 142.681C462.22 146.681 460.221 131.181 444.106 128.181M460.221 101.681C460.221 85.1808 445.221 69.6807 426.721 66.6807M460.221 101.681C464.289 104.907 467.608 108.447 470.17 112.181M460.221 101.681C452.173 106.665 447.847 108.062 440.22 109.855M426.721 66.6807C426.721 64.753 426.191 63.0291 425.221 61.4727M426.721 66.6807C423.192 67.4477 421.091 66.9692 417.221 65.1818M194.221 88.6817C180.786 97.7417 174.091 101.738 167.721 101.682C161.351 101.625 160.073 106.097 163.221 109.682M194.221 88.6817C203.142 74.6628 217.391 61.5533 233.721 52.0691M194.221 88.6817C193.37 89.865 192.537 91.046 191.721 92.2243M163.221 109.682C146.815 113.696 138.221 122.682 146.221 132.182M163.221 109.682C169.777 110.965 174.768 109.126 187.095 99.1812M146.221 132.182C135.721 139.182 131.721 152.182 142.221 161.182M146.221 132.182C157.274 134.532 163.347 133.19 173.848 124.182M142.221 161.182C136.221 175.182 135.253 193.749 146.221 191.682M142.221 161.182C127.721 157.681 121.423 161.217 112.721 172.681C103.262 178.841 97.8775 181.592 87.7209 181.681C71.7209 181.681 56.2248 184.857 41.2209 191.682M142.221 161.182C149.458 162.216 153.631 162.556 166.829 151.181M146.221 191.682C145.821 196.642 146.01 201.321 146.726 205.681M146.221 191.682C154.257 189.427 157.22 178.181 169.512 172.681M226.221 209.182C232.221 183.182 216.721 164.22 228.221 145.682M226.221 209.182C217.541 206.935 209.891 204.463 203.22 201.721M226.221 209.182C236.285 212.382 247.936 213.716 261.22 213.154M431.221 94.1818C422.689 84.2238 420.602 66.6807 417.221 65.1818M431.221 94.1818C406.293 82.854 393.142 78.9055 372.221 79.1818M431.221 94.1818C435.103 99.9193 438.093 105.108 440.22 109.855M417.221 65.1818C401.069 58.0201 392.934 53.6077 379.721 45.1818M166.638 154.682C174.721 139.182 191.221 139.182 206.721 124.182M166.638 154.682C166.668 153.527 166.732 152.36 166.829 151.181M166.638 154.682C166.464 161.292 167.392 167.267 169.512 172.681M206.721 124.182C211.355 133.169 215.807 137.913 228.221 145.682M206.721 124.182C203.808 111.455 205.594 105.008 212.221 94.1818M228.221 145.682C240.242 141.59 248.13 141.003 263.721 142.182M263.721 142.182C266.579 129.849 270.82 124.651 281.221 117.182M263.721 142.182C279.221 169.181 292.221 178.682 292.221 209.029M281.221 117.182C292.575 118.346 299.524 117.315 313.221 111.682M281.221 117.182C277.221 101.681 264.721 88.1818 243.721 76.6818M313.221 111.682C316.423 102.088 320.663 98.672 330.221 94.1818M313.221 111.682C338.952 134.423 347.794 151.718 352.721 191.39M330.221 94.1818C340.918 90.6035 347.542 89.3871 361.721 90.1818M330.221 94.1818C318.199 74.513 309.96 65.6507 291.221 55.6818M361.721 90.1818C363.515 84.5659 366.198 82.3829 372.221 79.1818M361.721 90.1818C382.431 110.799 392.686 125.382 405.221 164.22M372.221 79.1818C361.685 61.2719 353.946 53.6002 337.221 43.6808M367.721 38.1901L337.221 43.6808M367.721 38.1901C345.547 29.605 316.064 25.7496 292.721 33.4548M367.721 38.1901C369.967 39.0598 372.139 39.9781 374.221 40.9378M337.221 43.6808L314.221 44.6818M292.721 33.4548C289.601 34.4847 286.59 35.7213 283.721 37.1808C267.054 37.1808 249.425 42.9486 233.721 52.0691M292.721 33.4548C304.701 34.9385 309.232 37.5472 314.221 44.6818M314.221 44.6818L291.221 55.6818M291.221 55.6818L257.721 63.6818M257.721 63.6818L233.721 52.0691M257.721 63.6818L243.721 76.6818M243.721 76.6818L212.221 94.1818M212.221 94.1818L191.721 92.2243M191.721 92.2243C190.108 94.5545 188.566 96.8742 187.095 99.1812M292.221 209.029C281.042 211.38 270.714 212.751 261.22 213.154M292.221 209.029C305.325 207.55 317.045 205.331 327.221 202.368M352.721 191.39C345.833 195.78 337.281 199.438 327.221 202.368M352.721 191.39C354.9 190.914 357.066 190.376 359.22 189.772M405.221 164.22C404.238 164.704 403.238 165.191 402.221 165.682C398.013 169.583 393.672 173.007 389.22 176M405.221 164.22C409.174 162.273 412.843 160.377 416.22 158.505M166.638 235.874C174.024 251.388 177.26 261.067 189.721 271.682C203.221 283.182 188.721 255.182 200.221 248.773M166.638 235.874C156.178 229.57 148.938 219.144 146.726 205.681M200.221 248.773C202.837 249.017 206.159 248.87 210.221 248.433M200.221 248.773C189.721 263.682 264.221 283.013 265.876 271.682M210.221 248.433C222.774 260.37 233.519 264.467 264.221 263.682M253.721 255.182C262.504 258.277 266.141 262.646 265.876 271.682M300.221 308.182C274.221 316.182 258.393 306.182 263.221 287.182C264.832 280.843 265.756 275.782 265.876 271.682M294.721 304.682C294.582 298.865 296 297.36 303.221 300.182M297.221 305.682C301.699 306.514 303.286 308.712 304.221 316.182C304.221 320.182 307.932 308.574 305.221 302.182M308.721 301.182C307.323 297.783 308.168 296.548 312.221 295.682M310.721 307.182C314.694 304.616 317.879 305.074 327.221 313.182C330.703 316.204 326.607 305.628 319.221 300.86M315.721 299.182C316.951 299.57 318.122 300.151 319.221 300.86M309.721 254.625C308.289 257.369 306.95 259.885 305.795 262.181M319.221 300.86C317.221 292.682 310.721 288.682 306.721 287.182C308.556 283.844 308.721 281.056 305.221 279.182C299.74 276.247 301.493 270.735 305.795 262.181M455.609 184.682C463.431 184.876 467.889 184.145 476.721 172.682M455.609 184.682C439.721 228.181 358.221 272.681 305.795 262.181M455.609 184.682C451.798 189.705 447.29 194.556 442.304 199.182M481.221 156.182C476.521 170.762 473.529 179.354 482.721 177.682M485.221 167.182C477.721 181.682 490.221 193.182 494.721 211.182M474.721 121.064C500.221 113.682 521.721 128.182 530.721 184.682M474.721 121.064C473.654 118.026 472.135 115.046 470.17 112.181M498.221 213.682C514.221 215.682 525.721 210.182 529.221 186.182M494.721 212.182C496.221 237.182 499.546 239.662 504.721 215.182M508.721 215.182C513.975 248.964 515.679 239.453 518.221 211.182M521.221 209.182C531.868 233.573 532.844 230.217 527.221 199.182M527.721 197.182C538.291 213.629 542.643 219.301 531.221 186.182M374.221 40.9378C376.133 41.819 377.97 42.7352 379.721 43.6808C397.722 48.824 419.398 52.1302 425.221 61.4727M374.221 40.9378C397.221 15.1811 429.721 23.1809 425.221 61.4727M425.221 61.4727C430.804 58.5445 434.015 56.9662 441.721 55.6811C447.221 47.1811 454.721 46.1811 465.721 51.6811C484.221 51.6811 491.221 49.1811 488.221 82.6811C488.221 84.5701 486.418 86.4986 484.221 88.1423M480.221 90.6811C481.5 89.9774 482.928 89.1091 484.221 88.1423M484.221 88.1423C481.085 98.3059 478.751 103.811 470.17 112.181M130.221 181.681C131.135 187.962 131.905 192.786 134.273 196.681M146.726 205.681C140.172 203.211 136.51 200.36 134.273 196.681M117.221 189.181C117.881 192.646 119.031 195.349 120.583 197.181M134.273 196.681C128.543 201.036 123.734 200.902 120.583 197.181M44.2209 204.681C79.7209 232.681 101.221 202.681 120.583 197.181M46.7209 195.181C46.0713 198.856 44.7995 200.388 51.2209 208.181M44.2209 198.181C21.6466 200.086 19.6242 200.812 44.2209 201.181M41.2209 194.181C22.0817 192.326 17.2394 192.28 41.2209 197.681M38.7197 192.181C24.1932 188.483 19.7967 187.498 35.7197 192.681M187.095 99.1812C181.647 107.731 177.194 116.104 173.848 124.182M173.848 124.182C169.925 133.652 167.525 142.717 166.829 151.181M169.512 172.681C174.305 184.928 185.194 194.311 203.22 201.721M359.22 189.772C362.593 210.159 367.22 222.181 376.72 239.142M359.22 189.772C369.601 186.861 379.668 182.422 389.22 176M376.72 239.142C389.579 234.151 404.393 226.761 418.311 217.681M389.22 176C403.568 186.385 410.714 193.979 418.311 217.681M418.311 217.681C426.869 212.098 435.087 205.877 442.304 199.182M416.22 158.505C426.833 166.71 432.766 171.633 442.304 199.182M416.22 158.505C424.839 153.726 431.555 149.103 436.246 144.181M436.246 144.181C440.908 139.291 443.568 134.105 444.106 128.181M444.106 128.181C444.596 122.795 443.331 116.798 440.22 109.855M480.721 80.6811C480.692 76.2693 482.721 73.1811 486.721 73.1811C486.031 78.4266 484.331 79.5307 480.721 80.6811Z" stroke="url(#paint3_linear_579_424)" stroke-width="2" stroke-linecap="round" stroke-linejoin="round"/>
</g>
<g filter="url(#filter4_f_579_424)">
<path d="M192.721 242.681C182.863 242.681 173.961 240.288 166.638 235.874M192.721 242.681C192.922 246.507 195.347 248.319 200.221 248.773M192.721 242.681C193.904 225.505 197.469 217.048 203.22 201.721M225.721 246.181C242.409 253 250.802 254.149 263.221 249.181M225.721 246.181C219.69 247.177 214.538 247.968 210.221 248.433M225.721 246.181C229.1 230.851 227.813 223.136 226.221 209.182M263.221 249.181C275.721 261.181 290.221 259.181 304.221 252.181M263.221 249.181C261.044 233.283 261.035 225.957 261.22 213.154M304.221 252.181C304.969 253.356 306.948 254.165 309.721 254.625M304.221 252.181C300.979 227.846 298.069 219.86 292.221 209.029M350.721 246.181C340.891 253.258 319.929 256.316 309.721 254.625M350.721 246.181C336.72 238.181 340.22 217.681 327.221 202.368M350.721 246.181C357.06 245.684 366.24 243.209 376.72 239.142M464.721 169.181C474.721 159.681 476.221 153.181 474.721 142.681M464.721 169.181C462.523 174.483 459.413 179.668 455.609 184.682M464.721 169.181C453.72 167.182 448.72 146.681 436.246 144.181M474.721 142.681C477.242 135.621 477.221 128.181 474.721 121.064M474.721 142.681C462.22 146.681 460.221 131.181 444.106 128.181M460.221 101.681C460.221 85.1808 445.221 69.6807 426.721 66.6807M460.221 101.681C464.289 104.907 467.608 108.447 470.17 112.181M460.221 101.681C452.173 106.665 447.847 108.062 440.22 109.855M426.721 66.6807C426.721 64.753 426.191 63.0291 425.221 61.4727M426.721 66.6807C423.192 67.4477 421.091 66.9692 417.221 65.1818M194.221 88.6817C180.786 97.7417 174.091 101.738 167.721 101.682C161.351 101.625 160.073 106.097 163.221 109.682M194.221 88.6817C203.142 74.6628 217.391 61.5533 233.721 52.0691M194.221 88.6817C193.37 89.865 192.537 91.046 191.721 92.2243M163.221 109.682C146.815 113.696 138.221 122.682 146.221 132.182M163.221 109.682C169.777 110.965 174.768 109.126 187.095 99.1812M146.221 132.182C135.721 139.182 131.721 152.182 142.221 161.182M146.221 132.182C157.274 134.532 163.347 133.19 173.848 124.182M142.221 161.182C136.221 175.182 135.253 193.749 146.221 191.682M142.221 161.182C127.721 157.681 121.423 161.217 112.721 172.681C103.262 178.841 97.8775 181.592 87.7209 181.681C71.7209 181.681 56.2248 184.857 41.2209 191.682M142.221 161.182C149.458 162.216 153.631 162.556 166.829 151.181M146.221 191.682C145.821 196.642 146.01 201.321 146.726 205.681M146.221 191.682C154.257 189.427 157.22 178.181 169.512 172.681M226.221 209.182C232.221 183.182 216.721 164.22 228.221 145.682M226.221 209.182C217.541 206.935 209.891 204.463 203.22 201.721M226.221 209.182C236.285 212.382 247.936 213.716 261.22 213.154M431.221 94.1818C422.689 84.2238 420.602 66.6807 417.221 65.1818M431.221 94.1818C406.293 82.854 393.142 78.9055 372.221 79.1818M431.221 94.1818C435.103 99.9193 438.093 105.108 440.22 109.855M417.221 65.1818C401.069 58.0201 392.934 53.6077 379.721 45.1818M166.638 154.682C174.721 139.182 191.221 139.182 206.721 124.182M166.638 154.682C166.668 153.527 166.732 152.36 166.829 151.181M166.638 154.682C166.464 161.292 167.392 167.267 169.512 172.681M206.721 124.182C211.355 133.169 215.807 137.913 228.221 145.682M206.721 124.182C203.808 111.455 205.594 105.008 212.221 94.1818M228.221 145.682C240.242 141.59 248.13 141.003 263.721 142.182M263.721 142.182C266.579 129.849 270.82 124.651 281.221 117.182M263.721 142.182C279.221 169.181 292.221 178.682 292.221 209.029M281.221 117.182C292.575 118.346 299.524 117.315 313.221 111.682M281.221 117.182C277.221 101.681 264.721 88.1818 243.721 76.6818M313.221 111.682C316.423 102.088 320.663 98.672 330.221 94.1818M313.221 111.682C338.952 134.423 347.794 151.718 352.721 191.39M330.221 94.1818C340.918 90.6035 347.542 89.3871 361.721 90.1818M330.221 94.1818C318.199 74.513 309.96 65.6507 291.221 55.6818M361.721 90.1818C363.515 84.5659 366.198 82.3829 372.221 79.1818M361.721 90.1818C382.431 110.799 392.686 125.382 405.221 164.22M372.221 79.1818C361.685 61.2719 353.946 53.6002 337.221 43.6808M367.721 38.1901L337.221 43.6808M367.721 38.1901C345.547 29.605 316.064 25.7496 292.721 33.4548M367.721 38.1901C369.967 39.0598 372.139 39.9781 374.221 40.9378M337.221 43.6808L314.221 44.6818M292.721 33.4548C289.601 34.4847 286.59 35.7213 283.721 37.1808C267.054 37.1808 249.425 42.9486 233.721 52.0691M292.721 33.4548C304.701 34.9385 309.232 37.5472 314.221 44.6818M314.221 44.6818L291.221 55.6818M291.221 55.6818L257.721 63.6818M257.721 63.6818L233.721 52.0691M257.721 63.6818L243.721 76.6818M243.721 76.6818L212.221 94.1818M212.221 94.1818L191.721 92.2243M191.721 92.2243C190.108 94.5545 188.566 96.8742 187.095 99.1812M292.221 209.029C281.042 211.38 270.714 212.751 261.22 213.154M292.221 209.029C305.325 207.55 317.045 205.331 327.221 202.368M352.721 191.39C345.833 195.78 337.281 199.438 327.221 202.368M352.721 191.39C354.9 190.914 357.066 190.376 359.22 189.772M405.221 164.22C404.238 164.704 403.238 165.191 402.221 165.682C398.013 169.583 393.672 173.007 389.22 176M405.221 164.22C409.174 162.273 412.843 160.377 416.22 158.505M166.638 235.874C174.024 251.388 177.26 261.067 189.721 271.682C203.221 283.182 188.721 255.182 200.221 248.773M166.638 235.874C156.178 229.57 148.938 219.144 146.726 205.681M200.221 248.773C202.837 249.017 206.159 248.87 210.221 248.433M200.221 248.773C189.721 263.682 264.221 283.013 265.876 271.682M210.221 248.433C222.774 260.37 233.519 264.467 264.221 263.682M253.721 255.182C262.504 258.277 266.141 262.646 265.876 271.682M300.221 308.182C274.221 316.182 258.393 306.182 263.221 287.182C264.832 280.843 265.756 275.782 265.876 271.682M294.721 304.682C294.582 298.865 296 297.36 303.221 300.182M297.221 305.682C301.699 306.514 303.286 308.712 304.221 316.182C304.221 320.182 307.932 308.574 305.221 302.182M308.721 301.182C307.323 297.783 308.168 296.548 312.221 295.682M310.721 307.182C314.694 304.616 317.879 305.074 327.221 313.182C330.703 316.204 326.607 305.628 319.221 300.86M315.721 299.182C316.951 299.57 318.122 300.151 319.221 300.86M309.721 254.625C308.289 257.369 306.95 259.885 305.795 262.181M319.221 300.86C317.221 292.682 310.721 288.682 306.721 287.182C308.556 283.844 308.721 281.056 305.221 279.182C299.74 276.247 301.493 270.735 305.795 262.181M455.609 184.682C463.431 184.876 467.889 184.145 476.721 172.682M455.609 184.682C439.721 228.181 358.221 272.681 305.795 262.181M455.609 184.682C451.798 189.705 447.29 194.556 442.304 199.182M481.221 156.182C476.521 170.762 473.529 179.354 482.721 177.682M485.221 167.182C477.721 181.682 490.221 193.182 494.721 211.182M474.721 121.064C500.221 113.682 521.721 128.182 530.721 184.682M474.721 121.064C473.654 118.026 472.135 115.046 470.17 112.181M498.221 213.682C514.221 215.682 525.721 210.182 529.221 186.182M494.721 212.182C496.221 237.182 499.546 239.662 504.721 215.182M508.721 215.182C513.975 248.964 515.679 239.453 518.221 211.182M521.221 209.182C531.868 233.573 532.844 230.217 527.221 199.182M527.721 197.182C538.291 213.629 542.643 219.301 531.221 186.182M374.221 40.9378C376.133 41.819 377.97 42.7352 379.721 43.6808C397.722 48.824 419.398 52.1302 425.221 61.4727M374.221 40.9378C397.221 15.1811 429.721 23.1809 425.221 61.4727M425.221 61.4727C430.804 58.5445 434.015 56.9662 441.721 55.6811C447.221 47.1811 454.721 46.1811 465.721 51.6811C484.221 51.6811 491.221 49.1811 488.221 82.6811C488.221 84.5701 486.418 86.4986 484.221 88.1423M480.221 90.6811C481.5 89.9774 482.928 89.1091 484.221 88.1423M484.221 88.1423C481.085 98.3059 478.751 103.811 470.17 112.181M130.221 181.681C131.135 187.962 131.905 192.786 134.273 196.681M146.726 205.681C140.172 203.211 136.51 200.36 134.273 196.681M117.221 189.181C117.881 192.646 119.031 195.349 120.583 197.181M134.273 196.681C128.543 201.036 123.734 200.902 120.583 197.181M44.2209 204.681C79.7209 232.681 101.221 202.681 120.583 197.181M46.7209 195.181C46.0713 198.856 44.7995 200.388 51.2209 208.181M44.2209 198.181C21.6466 200.086 19.6242 200.812 44.2209 201.181M41.2209 194.181C22.0817 192.326 17.2394 192.28 41.2209 197.681M38.7197 192.181C24.1932 188.483 19.7967 187.498 35.7197 192.681M187.095 99.1812C181.647 107.731 177.194 116.104 173.848 124.182M173.848 124.182C169.925 133.652 167.525 142.717 166.829 151.181M169.512 172.681C174.305 184.928 185.194 194.311 203.22 201.721M359.22 189.772C362.593 210.159 367.22 222.181 376.72 239.142M359.22 189.772C369.601 186.861 379.668 182.422 389.22 176M376.72 239.142C389.579 234.151 404.393 226.761 418.311 217.681M389.22 176C403.568 186.385 410.714 193.979 418.311 217.681M418.311 217.681C426.869 212.098 435.087 205.877 442.304 199.182M416.22 158.505C426.833 166.71 432.766 171.633 442.304 199.182M416.22 158.505C424.839 153.726 431.555 149.103 436.246 144.181M436.246 144.181C440.908 139.291 443.568 134.105 444.106 128.181M444.106 128.181C444.596 122.795 443.331 116.798 440.22 109.855M480.721 80.6811C480.692 76.2693 482.721 73.1811 486.721 73.1811C486.031 78.4266 484.331 79.5307 480.721 80.6811Z" stroke="url(#paint4_linear_579_424)" stroke-width="2" stroke-linecap="round" stroke-linejoin="round"/>
</g>
<defs>
<filter id="filter0_f_579_424" x="-0.00341797" y="0.98877" width="562.978" height="341.012" filterUnits="userSpaceOnUse" color-interpolation-filters="sRGB">
<feFlood flood-opacity="0" result="BackgroundImageFix"/>
<feBlend mode="normal" in="SourceGraphic" in2="BackgroundImageFix" result="shape"/>
<feGaussianBlur stdDeviation="10" result="effect1_foregroundBlur_579_424"/>
</filter>
<filter id="filter1_f_579_424" x="7.49854" y="8.49414" width="547.976" height="326.007" filterUnits="userSpaceOnUse" color-interpolation-filters="sRGB">
<feFlood flood-opacity="0" result="BackgroundImageFix"/>
<feBlend mode="normal" in="SourceGraphic" in2="BackgroundImageFix" result="shape"/>
<feGaussianBlur stdDeviation="7.5" result="effect1_foregroundBlur_579_424"/>
</filter>
<filter id="filter2_f_579_424" x="13.499" y="14.4966" width="535.975" height="314.004" filterUnits="userSpaceOnUse" color-interpolation-filters="sRGB">
<feFlood flood-opacity="0" result="BackgroundImageFix"/>
<feBlend mode="normal" in="SourceGraphic" in2="BackgroundImageFix" result="shape"/>
<feGaussianBlur stdDeviation="5" result="effect1_foregroundBlur_579_424"/>
</filter>
<filter id="filter3_f_579_424" x="18.9995" y="19.9976" width="524.975" height="303.003" filterUnits="userSpaceOnUse" color-interpolation-filters="sRGB">
<feFlood flood-opacity="0" result="BackgroundImageFix"/>
<feBlend mode="normal" in="SourceGraphic" in2="BackgroundImageFix" result="shape"/>
<feGaussianBlur stdDeviation="2.5" result="effect1_foregroundBlur_579_424"/>
</filter>
<filter id="filter4_f_579_424" x="22.9995" y="23.9976" width="516.975" height="295.003" filterUnits="userSpaceOnUse" color-interpolation-filters="sRGB">
<feFlood flood-opacity="0" result="BackgroundImageFix"/>
<feBlend mode="normal" in="SourceGraphic" in2="BackgroundImageFix" result="shape"/>
<feGaussianBlur stdDeviation="0.5" result="effect1_foregroundBlur_579_424"/>
</filter>
<linearGradient id="paint0_linear_579_424" x1="281.487" y1="26" x2="281.487" y2="317.001" gradientUnits="userSpaceOnUse">
<stop stop-color="#FAFF00"/>
<stop offset="1" stop-color="#00FF75" stop-opacity="0.5"/>
</linearGradient>
<linearGradient id="paint1_linear_579_424" x1="281.487" y1="26" x2="281.487" y2="317.001" gradientUnits="userSpaceOnUse">
<stop stop-color="#FAFF00"/>
<stop offset="1" stop-color="#00FF75" stop-opacity="0.5"/>
</linearGradient>
<linearGradient id="paint2_linear_579_424" x1="281.487" y1="26" x2="281.487" y2="317.001" gradientUnits="userSpaceOnUse">
<stop stop-color="#FAFF00"/>
<stop offset="1" stop-color="#00FF75" stop-opacity="0.5"/>
</linearGradient>
<linearGradient id="paint3_linear_579_424" x1="281.487" y1="26" x2="281.487" y2="317.001" gradientUnits="userSpaceOnUse">
<stop stop-color="#FDFFA4"/>
<stop offset="1" stop-color="#8CFFC1" stop-opacity="0.5"/>
</linearGradient>
<linearGradient id="paint4_linear_579_424" x1="281.487" y1="26" x2="281.487" y2="317.001" gradientUnits="userSpaceOnUse">
<stop stop-color="white"/>
<stop offset="1" stop-color="white" stop-opacity="0.5"/>
</linearGradient>
</defs>
</svg>
