<svg width="620" height="487" viewBox="0 0 620 487" fill="none" xmlns="http://www.w3.org/2000/svg">
<g filter="url(#filter0_f_579_427)">
<path d="M515.993 306.552C517.055 259.128 510.921 218.054 499.352 183.062M62.678 290.177C62.4547 288.997 64.7759 290.078 72.9033 294.955C72.5675 293.275 73.3479 292.629 74.9492 292.63M62.678 290.177C64.7231 300.986 70.4246 305.635 87.2185 317.478M62.678 290.177C57.4707 232.373 68.0023 183.206 88.9183 143.491M519.401 324.293C520.222 306.871 515.403 299.4 494.179 291.544C493.321 288.279 491.814 286.183 489.604 284.721M519.401 324.293C553.92 331.929 564.219 336.556 548.032 346.125C584.843 350.901 588.155 362.101 558.257 365.229C574.15 367.33 580.785 369.46 580.752 378.192M519.401 324.293C511.235 322.486 472.63 272.21 428.94 286.104M321.033 234.233C309.223 243.187 297.414 241.423 284.223 242.071M321.033 234.233C331.8 240.459 340.635 241.558 348.983 241.572M321.033 234.233V215.129M244.004 259.477C259.223 245.217 272.288 242.657 284.223 242.071M244.004 259.477C226.87 247.211 220.614 237.582 212.648 217.77M244.004 259.477C201.297 275.382 166.187 276.079 156.068 279.242M284.223 242.071C196.287 297.002 149.933 293.59 128.801 316.788M219.464 342.032C215.813 350.608 212.379 358.336 209.049 365.229M121.984 392.52C117.875 398.366 117.306 401.961 119.678 404.118M119.678 404.118C123.322 407.432 133.903 407.357 149.251 406.847C177.128 414.418 191.681 401.177 209.049 365.229M119.678 404.118C92.5497 407.298 83.097 406.757 85.7342 400.025M87.2185 397.296C86.5523 398.299 86.0543 399.208 85.7342 400.025M85.7342 400.025C81.0592 399.085 76.7709 397.641 72.9033 395.718M169.701 314.058C128.801 321.563 56.6519 312.012 53.1346 324.293C51.7791 329.026 50.7561 333.578 50.0519 337.938M50.0519 337.938C49.0722 344.004 48.7094 349.699 48.9265 354.995M50.0519 337.938C18.3758 354.726 15.3636 359.369 48.9265 354.995M48.9265 354.995C49.0131 357.106 49.1918 359.153 49.4604 361.135M49.4604 361.135C50.365 367.813 52.2891 373.749 55.143 378.874M49.4604 361.135C34.059 386.127 36.2136 389.093 55.143 378.874M55.143 378.874C56.6668 381.611 58.4557 384.116 60.496 386.379M72.9033 395.718C68.0956 393.327 63.938 390.197 60.496 386.379M72.9033 395.718C70.8536 413.112 68.5387 414.091 60.496 386.379M170.383 378.192C152.657 386.144 140.888 393.267 147.888 365.229M164.248 361.817C133.712 366.526 128.827 362.121 145.161 339.985M130.164 353.63C96.8107 354.501 94.5924 349.837 118.576 332.48M138.344 372.734C120.658 372.377 116.376 370.345 130.164 359.771M121.302 389.108C84.3401 393.218 76.496 390.234 102.215 368.64M98.807 335.891C70.9986 350.202 72.2496 355.417 105.624 357.042M582.116 380.921C595.509 389.797 601.548 394.564 584.843 392.005M569.846 389.108C576.126 390.473 581.066 391.426 584.843 392.005M574.618 402.071C583.212 420.464 582.738 425.414 558.257 410.259M558.257 421.175C554.68 450.505 551.424 457.093 540.534 428.68M537.126 437.55C533.611 449.465 531.157 456.458 529.443 459.382M584.843 392.005C595.068 432.091 554.168 466.205 529.443 459.382M529.443 459.382C526.426 464.53 525.705 457.065 525.537 441.643C525.396 428.68 476.457 415.035 433.511 380.921C415.106 366.301 397.184 360.072 371.478 356.359M544.624 370.687C548.628 387.422 543.96 389.066 527.582 382.968M505.769 347.49C535.647 364.165 535.534 370.049 487.363 370.687M476.457 332.48C501.932 354.556 489.074 356.597 456.006 356.359M488.727 373.416C505.503 402.292 500.133 404.001 476.457 393.202M443.736 324.293C460.623 341.37 458.407 348.571 430.103 356.359M436.238 291.544C455.497 294.745 455.13 297.927 430.103 306.552M417.832 331.115C422.908 337.968 421.344 339.394 413.742 339.303M395.337 310.647C406.59 297.186 417.927 289.607 428.94 286.104M272.635 346.125C239.233 361.817 228.326 353.63 209.049 365.229M364.662 316.788C365.635 299.049 364.662 290.179 345.575 290.179M354.437 318.152V321.563M343.53 318.152V321.563M294.449 333.844C304.674 348.172 324.559 329.975 331.032 338.62C341.416 352.49 354.437 353.855 361.185 338.62C364.662 343.621 371.478 344.303 376.478 338.62M371.478 266.299C354.437 249.925 290.06 254.019 284.223 269.711C260.365 333.844 290.359 353.63 338.758 359.771M371.478 266.299C370.202 256.764 365.422 251.352 348.983 241.572M371.478 266.299C387.274 281.477 389.228 315.368 376.478 338.62M338.758 359.771C275.326 357.095 254.391 340.237 255.593 269.711M338.758 359.771C343.53 360.376 351.642 360.487 353.481 359.771C363.631 355.818 371.278 348.104 376.478 338.62M428.94 286.104C374.205 262.888 383.067 249.925 348.983 241.572M348.983 241.572C364.42 241.597 378.19 237.91 399.426 256.065C401.718 257.425 403.999 258.541 406.265 259.477M499.352 183.062C476.44 113.758 432.208 68.3116 380.34 44.6422M499.352 183.062C465.655 126.552 442.784 107.601 395.337 95.0494M499.352 183.062C496.717 206.233 488.317 221.852 476.457 229.654M395.337 198.072C363.089 196.673 321.033 215.129 321.033 215.129M395.337 198.072C391.753 159.176 383.124 142.407 364.662 114.835M395.337 198.072C402.795 206.964 410.359 214.249 417.832 219.949M321.033 215.129C321.033 215.129 275.666 197.575 243.323 200.119M243.323 200.119C238.02 167.897 238.441 149.388 250.822 114.835M243.323 200.119C232.296 207.259 222.139 213.187 212.648 217.77M104.26 183.062C93.1811 179.712 88.8962 173.251 88.9183 143.491M104.26 183.062C139.245 126.767 160.88 101.018 213.33 95.0494M104.26 183.062C116.729 200.194 128.481 212.181 140.39 219.59M104.26 183.062C86.3486 222.729 76.7013 245.16 74.9492 292.63M88.9183 143.491C131.154 89.087 154.446 68.804 194.924 60.2536M88.9183 143.491C116.459 91.196 162.004 55.2875 213.33 37.6233M364.662 114.835C322.375 101.311 297.675 99.9124 250.822 114.835M364.662 114.835C374.634 104.826 381.038 100.145 395.337 95.0494M250.822 114.835C237.816 102.951 229.966 97.7059 213.33 95.0494M213.33 95.0494C211.926 82.9244 211.785 76.3779 219.464 67.7586M219.464 67.7586C213.501 58.4463 208.876 55.4831 194.924 60.2536M219.464 67.7586C272.483 55.067 302.552 50.5896 359.208 65.7117M194.924 60.2536C205.831 50.7018 206.142 46.461 213.33 37.6233M213.33 37.6233C267.346 19.033 327.766 20.6505 380.34 44.6422M359.208 65.7117C364.1 56.2451 368.115 51.4163 380.34 44.6422M359.208 65.7117C375.712 69.7757 384.556 73.318 395.337 95.0494M212.648 217.77C197.065 225.296 183.278 229.198 170.383 228.891M170.383 228.891C168.698 252.255 167.848 265.444 156.068 279.242M170.383 228.891C159.962 228.642 150.123 225.645 140.39 219.59M156.068 279.242C152.296 280.421 151.996 281.942 156.068 284.721C139.126 290.887 122.429 290.768 112.441 291.817M140.39 219.59C132.228 248.749 128.712 265.462 112.441 291.817M112.441 291.817C104.746 292.626 101.034 294.128 104.26 299.731C92.4428 298.702 79.8506 292.635 74.9492 292.63M417.832 219.949C416.466 235.76 416.241 244.688 406.265 259.477M417.832 219.949C427.606 227.404 437.224 232.148 446.244 234.233M406.265 259.477C422.193 266.057 437.338 263.735 449.87 274.487C456.435 276.786 462.209 278.216 467.241 279.242M446.244 234.233C450.165 256.621 453.374 268.035 467.241 279.242M446.244 234.233C457.54 236.843 467.899 235.284 476.457 229.654M467.241 279.242C477.846 281.405 485.152 281.775 489.604 284.721M476.457 229.654C478.232 249.053 477.993 259.159 489.604 284.721M312.854 316.105C311.438 300.287 307.253 296.182 293.086 298.366C297.172 314.733 301.943 317.469 312.854 316.105ZM380.34 288.132C373.548 291.214 369.828 293.136 369.433 310.647C377.695 307.385 381.77 304.786 380.34 288.132Z" stroke="url(#paint0_linear_579_427)" stroke-width="10" stroke-linecap="round" stroke-linejoin="round"/>
</g>
<g filter="url(#filter1_f_579_427)">
<path d="M515.993 306.552C517.055 259.128 510.921 218.054 499.352 183.062M62.678 290.177C62.4547 288.997 64.7759 290.078 72.9033 294.955C72.5675 293.275 73.3479 292.629 74.9492 292.63M62.678 290.177C64.7231 300.986 70.4246 305.635 87.2185 317.478M62.678 290.177C57.4707 232.373 68.0023 183.206 88.9183 143.491M519.401 324.293C520.222 306.871 515.403 299.4 494.179 291.544C493.321 288.279 491.814 286.183 489.604 284.721M519.401 324.293C553.92 331.929 564.219 336.556 548.032 346.125C584.843 350.901 588.155 362.101 558.257 365.229C574.15 367.33 580.785 369.46 580.752 378.192M519.401 324.293C511.235 322.486 472.63 272.21 428.94 286.104M321.033 234.233C309.223 243.187 297.414 241.423 284.223 242.071M321.033 234.233C331.8 240.459 340.635 241.558 348.983 241.572M321.033 234.233V215.129M244.004 259.477C259.223 245.217 272.288 242.657 284.223 242.071M244.004 259.477C226.87 247.211 220.614 237.582 212.648 217.77M244.004 259.477C201.297 275.382 166.187 276.079 156.068 279.242M284.223 242.071C196.287 297.002 149.933 293.59 128.801 316.788M219.464 342.032C215.813 350.608 212.379 358.336 209.049 365.229M121.984 392.52C117.875 398.366 117.306 401.961 119.678 404.118M119.678 404.118C123.322 407.432 133.903 407.357 149.251 406.847C177.128 414.418 191.681 401.177 209.049 365.229M119.678 404.118C92.5497 407.298 83.097 406.757 85.7342 400.025M87.2185 397.296C86.5523 398.299 86.0543 399.208 85.7342 400.025M85.7342 400.025C81.0592 399.085 76.7709 397.641 72.9033 395.718M169.701 314.058C128.801 321.563 56.6519 312.012 53.1346 324.293C51.7791 329.026 50.7561 333.578 50.0519 337.938M50.0519 337.938C49.0722 344.004 48.7094 349.699 48.9265 354.995M50.0519 337.938C18.3758 354.726 15.3636 359.369 48.9265 354.995M48.9265 354.995C49.0131 357.106 49.1918 359.153 49.4604 361.135M49.4604 361.135C50.365 367.813 52.2891 373.749 55.143 378.874M49.4604 361.135C34.059 386.127 36.2136 389.093 55.143 378.874M55.143 378.874C56.6668 381.611 58.4557 384.116 60.496 386.379M72.9033 395.718C68.0956 393.327 63.938 390.197 60.496 386.379M72.9033 395.718C70.8536 413.112 68.5387 414.091 60.496 386.379M170.383 378.192C152.657 386.144 140.888 393.267 147.888 365.229M164.248 361.817C133.712 366.526 128.827 362.121 145.161 339.985M130.164 353.63C96.8107 354.501 94.5924 349.837 118.576 332.48M138.344 372.734C120.658 372.377 116.376 370.345 130.164 359.771M121.302 389.108C84.3401 393.218 76.496 390.234 102.215 368.64M98.807 335.891C70.9986 350.202 72.2496 355.417 105.624 357.042M582.116 380.921C595.509 389.797 601.548 394.564 584.843 392.005M569.846 389.108C576.126 390.473 581.066 391.426 584.843 392.005M574.618 402.071C583.212 420.464 582.738 425.414 558.257 410.259M558.257 421.175C554.68 450.505 551.424 457.093 540.534 428.68M537.126 437.55C533.611 449.465 531.157 456.458 529.443 459.382M584.843 392.005C595.068 432.091 554.168 466.205 529.443 459.382M529.443 459.382C526.426 464.53 525.705 457.065 525.537 441.643C525.396 428.68 476.457 415.035 433.511 380.921C415.106 366.301 397.184 360.072 371.478 356.359M544.624 370.687C548.628 387.422 543.96 389.066 527.582 382.968M505.769 347.49C535.647 364.165 535.534 370.049 487.363 370.687M476.457 332.48C501.932 354.556 489.074 356.597 456.006 356.359M488.727 373.416C505.503 402.292 500.133 404.001 476.457 393.202M443.736 324.293C460.623 341.37 458.407 348.571 430.103 356.359M436.238 291.544C455.497 294.745 455.13 297.927 430.103 306.552M417.832 331.115C422.908 337.968 421.344 339.394 413.742 339.303M395.337 310.647C406.59 297.186 417.927 289.607 428.94 286.104M272.635 346.125C239.233 361.817 228.326 353.63 209.049 365.229M364.662 316.788C365.635 299.049 364.662 290.179 345.575 290.179M354.437 318.152V321.563M343.53 318.152V321.563M294.449 333.844C304.674 348.172 324.559 329.975 331.032 338.62C341.416 352.49 354.437 353.855 361.185 338.62C364.662 343.621 371.478 344.303 376.478 338.62M371.478 266.299C354.437 249.925 290.06 254.019 284.223 269.711C260.365 333.844 290.359 353.63 338.758 359.771M371.478 266.299C370.202 256.764 365.422 251.352 348.983 241.572M371.478 266.299C387.274 281.477 389.228 315.368 376.478 338.62M338.758 359.771C275.326 357.095 254.391 340.237 255.593 269.711M338.758 359.771C343.53 360.376 351.642 360.487 353.481 359.771C363.631 355.818 371.278 348.104 376.478 338.62M428.94 286.104C374.205 262.888 383.067 249.925 348.983 241.572M348.983 241.572C364.42 241.597 378.19 237.91 399.426 256.065C401.718 257.425 403.999 258.541 406.265 259.477M499.352 183.062C476.44 113.758 432.208 68.3116 380.34 44.6422M499.352 183.062C465.655 126.552 442.784 107.601 395.337 95.0494M499.352 183.062C496.717 206.233 488.317 221.852 476.457 229.654M395.337 198.072C363.089 196.673 321.033 215.129 321.033 215.129M395.337 198.072C391.753 159.176 383.124 142.407 364.662 114.835M395.337 198.072C402.795 206.964 410.359 214.249 417.832 219.949M321.033 215.129C321.033 215.129 275.666 197.575 243.323 200.119M243.323 200.119C238.02 167.897 238.441 149.388 250.822 114.835M243.323 200.119C232.296 207.259 222.139 213.187 212.648 217.77M104.26 183.062C93.1811 179.712 88.8962 173.251 88.9183 143.491M104.26 183.062C139.245 126.767 160.88 101.018 213.33 95.0494M104.26 183.062C116.729 200.194 128.481 212.181 140.39 219.59M104.26 183.062C86.3486 222.729 76.7013 245.16 74.9492 292.63M88.9183 143.491C131.154 89.087 154.446 68.804 194.924 60.2536M88.9183 143.491C116.459 91.196 162.004 55.2875 213.33 37.6233M364.662 114.835C322.375 101.311 297.675 99.9124 250.822 114.835M364.662 114.835C374.634 104.826 381.038 100.145 395.337 95.0494M250.822 114.835C237.816 102.951 229.966 97.7059 213.33 95.0494M213.33 95.0494C211.926 82.9244 211.785 76.3779 219.464 67.7586M219.464 67.7586C213.501 58.4463 208.876 55.4831 194.924 60.2536M219.464 67.7586C272.483 55.067 302.552 50.5896 359.208 65.7117M194.924 60.2536C205.831 50.7018 206.142 46.461 213.33 37.6233M213.33 37.6233C267.346 19.033 327.766 20.6505 380.34 44.6422M359.208 65.7117C364.1 56.2451 368.115 51.4163 380.34 44.6422M359.208 65.7117C375.712 69.7757 384.556 73.318 395.337 95.0494M212.648 217.77C197.065 225.296 183.278 229.198 170.383 228.891M170.383 228.891C168.698 252.255 167.848 265.444 156.068 279.242M170.383 228.891C159.962 228.642 150.123 225.645 140.39 219.59M156.068 279.242C152.296 280.421 151.996 281.942 156.068 284.721C139.126 290.887 122.429 290.768 112.441 291.817M140.39 219.59C132.228 248.749 128.712 265.462 112.441 291.817M112.441 291.817C104.746 292.626 101.034 294.128 104.26 299.731C92.4428 298.702 79.8506 292.635 74.9492 292.63M417.832 219.949C416.466 235.76 416.241 244.688 406.265 259.477M417.832 219.949C427.606 227.404 437.224 232.148 446.244 234.233M406.265 259.477C422.193 266.057 437.338 263.735 449.87 274.487C456.435 276.786 462.209 278.216 467.241 279.242M446.244 234.233C450.165 256.621 453.374 268.035 467.241 279.242M446.244 234.233C457.54 236.843 467.899 235.284 476.457 229.654M467.241 279.242C477.846 281.405 485.152 281.775 489.604 284.721M476.457 229.654C478.232 249.053 477.993 259.159 489.604 284.721M312.854 316.105C311.438 300.287 307.253 296.182 293.086 298.366C297.172 314.733 301.943 317.469 312.854 316.105ZM380.34 288.132C373.548 291.214 369.828 293.136 369.433 310.647C377.695 307.385 381.77 304.786 380.34 288.132Z" stroke="url(#paint1_linear_579_427)" stroke-width="5" stroke-linecap="round" stroke-linejoin="round"/>
</g>
<g filter="url(#filter2_f_579_427)">
<path d="M515.993 306.552C517.055 259.128 510.921 218.054 499.352 183.062M62.678 290.177C62.4547 288.997 64.7759 290.078 72.9033 294.955C72.5675 293.275 73.3479 292.629 74.9492 292.63M62.678 290.177C64.7231 300.986 70.4246 305.635 87.2185 317.478M62.678 290.177C57.4707 232.373 68.0023 183.206 88.9183 143.491M519.401 324.293C520.222 306.871 515.403 299.4 494.179 291.544C493.321 288.279 491.814 286.183 489.604 284.721M519.401 324.293C553.92 331.929 564.219 336.556 548.032 346.125C584.843 350.901 588.155 362.101 558.257 365.229C574.15 367.33 580.785 369.46 580.752 378.192M519.401 324.293C511.235 322.486 472.63 272.21 428.94 286.104M321.033 234.233C309.223 243.187 297.414 241.423 284.223 242.071M321.033 234.233C331.8 240.459 340.635 241.558 348.983 241.572M321.033 234.233V215.129M244.004 259.477C259.223 245.217 272.288 242.657 284.223 242.071M244.004 259.477C226.87 247.211 220.614 237.582 212.648 217.77M244.004 259.477C201.297 275.382 166.187 276.079 156.068 279.242M284.223 242.071C196.287 297.002 149.933 293.59 128.801 316.788M219.464 342.032C215.813 350.608 212.379 358.336 209.049 365.229M121.984 392.52C117.875 398.366 117.306 401.961 119.678 404.118M119.678 404.118C123.322 407.432 133.903 407.357 149.251 406.847C177.128 414.418 191.681 401.177 209.049 365.229M119.678 404.118C92.5497 407.298 83.097 406.757 85.7342 400.025M87.2185 397.296C86.5523 398.299 86.0543 399.208 85.7342 400.025M85.7342 400.025C81.0592 399.085 76.7709 397.641 72.9033 395.718M169.701 314.058C128.801 321.563 56.6519 312.012 53.1346 324.293C51.7791 329.026 50.7561 333.578 50.0519 337.938M50.0519 337.938C49.0722 344.004 48.7094 349.699 48.9265 354.995M50.0519 337.938C18.3758 354.726 15.3636 359.369 48.9265 354.995M48.9265 354.995C49.0131 357.106 49.1918 359.153 49.4604 361.135M49.4604 361.135C50.365 367.813 52.2891 373.749 55.143 378.874M49.4604 361.135C34.059 386.127 36.2136 389.093 55.143 378.874M55.143 378.874C56.6668 381.611 58.4557 384.116 60.496 386.379M72.9033 395.718C68.0956 393.327 63.938 390.197 60.496 386.379M72.9033 395.718C70.8536 413.112 68.5387 414.091 60.496 386.379M170.383 378.192C152.657 386.144 140.888 393.267 147.888 365.229M164.248 361.817C133.712 366.526 128.827 362.121 145.161 339.985M130.164 353.63C96.8107 354.501 94.5924 349.837 118.576 332.48M138.344 372.734C120.658 372.377 116.376 370.345 130.164 359.771M121.302 389.108C84.3401 393.218 76.496 390.234 102.215 368.64M98.807 335.891C70.9986 350.202 72.2496 355.417 105.624 357.042M582.116 380.921C595.509 389.797 601.548 394.564 584.843 392.005M569.846 389.108C576.126 390.473 581.066 391.426 584.843 392.005M574.618 402.071C583.212 420.464 582.738 425.414 558.257 410.259M558.257 421.175C554.68 450.505 551.424 457.093 540.534 428.68M537.126 437.55C533.611 449.465 531.157 456.458 529.443 459.382M584.843 392.005C595.068 432.091 554.168 466.205 529.443 459.382M529.443 459.382C526.426 464.53 525.705 457.065 525.537 441.643C525.396 428.68 476.457 415.035 433.511 380.921C415.106 366.301 397.184 360.072 371.478 356.359M544.624 370.687C548.628 387.422 543.96 389.066 527.582 382.968M505.769 347.49C535.647 364.165 535.534 370.049 487.363 370.687M476.457 332.48C501.932 354.556 489.074 356.597 456.006 356.359M488.727 373.416C505.503 402.292 500.133 404.001 476.457 393.202M443.736 324.293C460.623 341.37 458.407 348.571 430.103 356.359M436.238 291.544C455.497 294.745 455.13 297.927 430.103 306.552M417.832 331.115C422.908 337.968 421.344 339.394 413.742 339.303M395.337 310.647C406.59 297.186 417.927 289.607 428.94 286.104M272.635 346.125C239.233 361.817 228.326 353.63 209.049 365.229M364.662 316.788C365.635 299.049 364.662 290.179 345.575 290.179M354.437 318.152V321.563M343.53 318.152V321.563M294.449 333.844C304.674 348.172 324.559 329.975 331.032 338.62C341.416 352.49 354.437 353.855 361.185 338.62C364.662 343.621 371.478 344.303 376.478 338.62M371.478 266.299C354.437 249.925 290.06 254.019 284.223 269.711C260.365 333.844 290.359 353.63 338.758 359.771M371.478 266.299C370.202 256.764 365.422 251.352 348.983 241.572M371.478 266.299C387.274 281.477 389.228 315.368 376.478 338.62M338.758 359.771C275.326 357.095 254.391 340.237 255.593 269.711M338.758 359.771C343.53 360.376 351.642 360.487 353.481 359.771C363.631 355.818 371.278 348.104 376.478 338.62M428.94 286.104C374.205 262.888 383.067 249.925 348.983 241.572M348.983 241.572C364.42 241.597 378.19 237.91 399.426 256.065C401.718 257.425 403.999 258.541 406.265 259.477M499.352 183.062C476.44 113.758 432.208 68.3116 380.34 44.6422M499.352 183.062C465.655 126.552 442.784 107.601 395.337 95.0494M499.352 183.062C496.717 206.233 488.317 221.852 476.457 229.654M395.337 198.072C363.089 196.673 321.033 215.129 321.033 215.129M395.337 198.072C391.753 159.176 383.124 142.407 364.662 114.835M395.337 198.072C402.795 206.964 410.359 214.249 417.832 219.949M321.033 215.129C321.033 215.129 275.666 197.575 243.323 200.119M243.323 200.119C238.02 167.897 238.441 149.388 250.822 114.835M243.323 200.119C232.296 207.259 222.139 213.187 212.648 217.77M104.26 183.062C93.1811 179.712 88.8962 173.251 88.9183 143.491M104.26 183.062C139.245 126.767 160.88 101.018 213.33 95.0494M104.26 183.062C116.729 200.194 128.481 212.181 140.39 219.59M104.26 183.062C86.3486 222.729 76.7013 245.16 74.9492 292.63M88.9183 143.491C131.154 89.087 154.446 68.804 194.924 60.2536M88.9183 143.491C116.459 91.196 162.004 55.2875 213.33 37.6233M364.662 114.835C322.375 101.311 297.675 99.9124 250.822 114.835M364.662 114.835C374.634 104.826 381.038 100.145 395.337 95.0494M250.822 114.835C237.816 102.951 229.966 97.7059 213.33 95.0494M213.33 95.0494C211.926 82.9244 211.785 76.3779 219.464 67.7586M219.464 67.7586C213.501 58.4463 208.876 55.4831 194.924 60.2536M219.464 67.7586C272.483 55.067 302.552 50.5896 359.208 65.7117M194.924 60.2536C205.831 50.7018 206.142 46.461 213.33 37.6233M213.33 37.6233C267.346 19.033 327.766 20.6505 380.34 44.6422M359.208 65.7117C364.1 56.2451 368.115 51.4163 380.34 44.6422M359.208 65.7117C375.712 69.7757 384.556 73.318 395.337 95.0494M212.648 217.77C197.065 225.296 183.278 229.198 170.383 228.891M170.383 228.891C168.698 252.255 167.848 265.444 156.068 279.242M170.383 228.891C159.962 228.642 150.123 225.645 140.39 219.59M156.068 279.242C152.296 280.421 151.996 281.942 156.068 284.721C139.126 290.887 122.429 290.768 112.441 291.817M140.39 219.59C132.228 248.749 128.712 265.462 112.441 291.817M112.441 291.817C104.746 292.626 101.034 294.128 104.26 299.731C92.4428 298.702 79.8506 292.635 74.9492 292.63M417.832 219.949C416.466 235.76 416.241 244.688 406.265 259.477M417.832 219.949C427.606 227.404 437.224 232.148 446.244 234.233M406.265 259.477C422.193 266.057 437.338 263.735 449.87 274.487C456.435 276.786 462.209 278.216 467.241 279.242M446.244 234.233C450.165 256.621 453.374 268.035 467.241 279.242M446.244 234.233C457.54 236.843 467.899 235.284 476.457 229.654M467.241 279.242C477.846 281.405 485.152 281.775 489.604 284.721M476.457 229.654C478.232 249.053 477.993 259.159 489.604 284.721M312.854 316.105C311.438 300.287 307.253 296.182 293.086 298.366C297.172 314.733 301.943 317.469 312.854 316.105ZM380.34 288.132C373.548 291.214 369.828 293.136 369.433 310.647C377.695 307.385 381.77 304.786 380.34 288.132Z" stroke="url(#paint2_linear_579_427)" stroke-width="3" stroke-linecap="round" stroke-linejoin="round"/>
</g>
<g filter="url(#filter3_f_579_427)">
<path d="M515.993 306.552C517.055 259.128 510.921 218.054 499.352 183.062M62.678 290.177C62.4547 288.997 64.7759 290.078 72.9033 294.955C72.5675 293.275 73.3479 292.629 74.9492 292.63M62.678 290.177C64.7231 300.986 70.4246 305.635 87.2185 317.478M62.678 290.177C57.4707 232.373 68.0023 183.206 88.9183 143.491M519.401 324.293C520.222 306.871 515.403 299.4 494.179 291.544C493.321 288.279 491.814 286.183 489.604 284.721M519.401 324.293C553.92 331.929 564.219 336.556 548.032 346.125C584.843 350.901 588.155 362.101 558.257 365.229C574.15 367.33 580.785 369.46 580.752 378.192M519.401 324.293C511.235 322.486 472.63 272.21 428.94 286.104M321.033 234.233C309.223 243.187 297.414 241.423 284.223 242.071M321.033 234.233C331.8 240.459 340.635 241.558 348.983 241.572M321.033 234.233V215.129M244.004 259.477C259.223 245.217 272.288 242.657 284.223 242.071M244.004 259.477C226.87 247.211 220.614 237.582 212.648 217.77M244.004 259.477C201.297 275.382 166.187 276.079 156.068 279.242M284.223 242.071C196.287 297.002 149.933 293.59 128.801 316.788M219.464 342.032C215.813 350.608 212.379 358.336 209.049 365.229M121.984 392.52C117.875 398.366 117.306 401.961 119.678 404.118M119.678 404.118C123.322 407.432 133.903 407.357 149.251 406.847C177.128 414.418 191.681 401.177 209.049 365.229M119.678 404.118C92.5497 407.298 83.097 406.757 85.7342 400.025M87.2185 397.296C86.5523 398.299 86.0543 399.208 85.7342 400.025M85.7342 400.025C81.0592 399.085 76.7709 397.641 72.9033 395.718M169.701 314.058C128.801 321.563 56.6519 312.012 53.1346 324.293C51.7791 329.026 50.7561 333.578 50.0519 337.938M50.0519 337.938C49.0722 344.004 48.7094 349.699 48.9265 354.995M50.0519 337.938C18.3758 354.726 15.3636 359.369 48.9265 354.995M48.9265 354.995C49.0131 357.106 49.1918 359.153 49.4604 361.135M49.4604 361.135C50.365 367.813 52.2891 373.749 55.143 378.874M49.4604 361.135C34.059 386.127 36.2136 389.093 55.143 378.874M55.143 378.874C56.6668 381.611 58.4557 384.116 60.496 386.379M72.9033 395.718C68.0956 393.327 63.938 390.197 60.496 386.379M72.9033 395.718C70.8536 413.112 68.5387 414.091 60.496 386.379M170.383 378.192C152.657 386.144 140.888 393.267 147.888 365.229M164.248 361.817C133.712 366.526 128.827 362.121 145.161 339.985M130.164 353.63C96.8107 354.501 94.5924 349.837 118.576 332.48M138.344 372.734C120.658 372.377 116.376 370.345 130.164 359.771M121.302 389.108C84.3401 393.218 76.496 390.234 102.215 368.64M98.807 335.891C70.9986 350.202 72.2496 355.417 105.624 357.042M582.116 380.921C595.509 389.797 601.548 394.564 584.843 392.005M569.846 389.108C576.126 390.473 581.066 391.426 584.843 392.005M574.618 402.071C583.212 420.464 582.738 425.414 558.257 410.259M558.257 421.175C554.68 450.505 551.424 457.093 540.534 428.68M537.126 437.55C533.611 449.465 531.157 456.458 529.443 459.382M584.843 392.005C595.068 432.091 554.168 466.205 529.443 459.382M529.443 459.382C526.426 464.53 525.705 457.065 525.537 441.643C525.396 428.68 476.457 415.035 433.511 380.921C415.106 366.301 397.184 360.072 371.478 356.359M544.624 370.687C548.628 387.422 543.96 389.066 527.582 382.968M505.769 347.49C535.647 364.165 535.534 370.049 487.363 370.687M476.457 332.48C501.932 354.556 489.074 356.597 456.006 356.359M488.727 373.416C505.503 402.292 500.133 404.001 476.457 393.202M443.736 324.293C460.623 341.37 458.407 348.571 430.103 356.359M436.238 291.544C455.497 294.745 455.13 297.927 430.103 306.552M417.832 331.115C422.908 337.968 421.344 339.394 413.742 339.303M395.337 310.647C406.59 297.186 417.927 289.607 428.94 286.104M272.635 346.125C239.233 361.817 228.326 353.63 209.049 365.229M364.662 316.788C365.635 299.049 364.662 290.179 345.575 290.179M354.437 318.152V321.563M343.53 318.152V321.563M294.449 333.844C304.674 348.172 324.559 329.975 331.032 338.62C341.416 352.49 354.437 353.855 361.185 338.62C364.662 343.621 371.478 344.303 376.478 338.62M371.478 266.299C354.437 249.925 290.06 254.019 284.223 269.711C260.365 333.844 290.359 353.63 338.758 359.771M371.478 266.299C370.202 256.764 365.422 251.352 348.983 241.572M371.478 266.299C387.274 281.477 389.228 315.368 376.478 338.62M338.758 359.771C275.326 357.095 254.391 340.237 255.593 269.711M338.758 359.771C343.53 360.376 351.642 360.487 353.481 359.771C363.631 355.818 371.278 348.104 376.478 338.62M428.94 286.104C374.205 262.888 383.067 249.925 348.983 241.572M348.983 241.572C364.42 241.597 378.19 237.91 399.426 256.065C401.718 257.425 403.999 258.541 406.265 259.477M499.352 183.062C476.44 113.758 432.208 68.3116 380.34 44.6422M499.352 183.062C465.655 126.552 442.784 107.601 395.337 95.0494M499.352 183.062C496.717 206.233 488.317 221.852 476.457 229.654M395.337 198.072C363.089 196.673 321.033 215.129 321.033 215.129M395.337 198.072C391.753 159.176 383.124 142.407 364.662 114.835M395.337 198.072C402.795 206.964 410.359 214.249 417.832 219.949M321.033 215.129C321.033 215.129 275.666 197.575 243.323 200.119M243.323 200.119C238.02 167.897 238.441 149.388 250.822 114.835M243.323 200.119C232.296 207.259 222.139 213.187 212.648 217.77M104.26 183.062C93.1811 179.712 88.8962 173.251 88.9183 143.491M104.26 183.062C139.245 126.767 160.88 101.018 213.33 95.0494M104.26 183.062C116.729 200.194 128.481 212.181 140.39 219.59M104.26 183.062C86.3486 222.729 76.7013 245.16 74.9492 292.63M88.9183 143.491C131.154 89.087 154.446 68.804 194.924 60.2536M88.9183 143.491C116.459 91.196 162.004 55.2875 213.33 37.6233M364.662 114.835C322.375 101.311 297.675 99.9124 250.822 114.835M364.662 114.835C374.634 104.826 381.038 100.145 395.337 95.0494M250.822 114.835C237.816 102.951 229.966 97.7059 213.33 95.0494M213.33 95.0494C211.926 82.9244 211.785 76.3779 219.464 67.7586M219.464 67.7586C213.501 58.4463 208.876 55.4831 194.924 60.2536M219.464 67.7586C272.483 55.067 302.552 50.5896 359.208 65.7117M194.924 60.2536C205.831 50.7018 206.142 46.461 213.33 37.6233M213.33 37.6233C267.346 19.033 327.766 20.6505 380.34 44.6422M359.208 65.7117C364.1 56.2451 368.115 51.4163 380.34 44.6422M359.208 65.7117C375.712 69.7757 384.556 73.318 395.337 95.0494M212.648 217.77C197.065 225.296 183.278 229.198 170.383 228.891M170.383 228.891C168.698 252.255 167.848 265.444 156.068 279.242M170.383 228.891C159.962 228.642 150.123 225.645 140.39 219.59M156.068 279.242C152.296 280.421 151.996 281.942 156.068 284.721C139.126 290.887 122.429 290.768 112.441 291.817M140.39 219.59C132.228 248.749 128.712 265.462 112.441 291.817M112.441 291.817C104.746 292.626 101.034 294.128 104.26 299.731C92.4428 298.702 79.8506 292.635 74.9492 292.63M417.832 219.949C416.466 235.76 416.241 244.688 406.265 259.477M417.832 219.949C427.606 227.404 437.224 232.148 446.244 234.233M406.265 259.477C422.193 266.057 437.338 263.735 449.87 274.487C456.435 276.786 462.209 278.216 467.241 279.242M446.244 234.233C450.165 256.621 453.374 268.035 467.241 279.242M446.244 234.233C457.54 236.843 467.899 235.284 476.457 229.654M467.241 279.242C477.846 281.405 485.152 281.775 489.604 284.721M476.457 229.654C478.232 249.053 477.993 259.159 489.604 284.721M312.854 316.105C311.438 300.287 307.253 296.182 293.086 298.366C297.172 314.733 301.943 317.469 312.854 316.105ZM380.34 288.132C373.548 291.214 369.828 293.136 369.433 310.647C377.695 307.385 381.77 304.786 380.34 288.132Z" stroke="url(#paint3_linear_579_427)" stroke-width="2" stroke-linecap="round" stroke-linejoin="round"/>
</g>
<g filter="url(#filter4_f_579_427)">
<path d="M515.993 306.552C517.055 259.128 510.921 218.054 499.352 183.062M62.678 290.177C62.4547 288.997 64.7759 290.078 72.9033 294.955C72.5675 293.275 73.3479 292.629 74.9492 292.63M62.678 290.177C64.7231 300.986 70.4246 305.635 87.2185 317.478M62.678 290.177C57.4707 232.373 68.0023 183.206 88.9183 143.491M519.401 324.293C520.222 306.871 515.403 299.4 494.179 291.544C493.321 288.279 491.814 286.183 489.604 284.721M519.401 324.293C553.92 331.929 564.219 336.556 548.032 346.125C584.843 350.901 588.155 362.101 558.257 365.229C574.15 367.33 580.785 369.46 580.752 378.192M519.401 324.293C511.235 322.486 472.63 272.21 428.94 286.104M321.033 234.233C309.223 243.187 297.414 241.423 284.223 242.071M321.033 234.233C331.8 240.459 340.635 241.558 348.983 241.572M321.033 234.233V215.129M244.004 259.477C259.223 245.217 272.288 242.657 284.223 242.071M244.004 259.477C226.87 247.211 220.614 237.582 212.648 217.77M244.004 259.477C201.297 275.382 166.187 276.079 156.068 279.242M284.223 242.071C196.287 297.002 149.933 293.59 128.801 316.788M219.464 342.032C215.813 350.608 212.379 358.336 209.049 365.229M121.984 392.52C117.875 398.366 117.306 401.961 119.678 404.118M119.678 404.118C123.322 407.432 133.903 407.357 149.251 406.847C177.128 414.418 191.681 401.177 209.049 365.229M119.678 404.118C92.5497 407.298 83.097 406.757 85.7342 400.025M87.2185 397.296C86.5523 398.299 86.0543 399.208 85.7342 400.025M85.7342 400.025C81.0592 399.085 76.7709 397.641 72.9033 395.718M169.701 314.058C128.801 321.563 56.6519 312.012 53.1346 324.293C51.7791 329.026 50.7561 333.578 50.0519 337.938M50.0519 337.938C49.0722 344.004 48.7094 349.699 48.9265 354.995M50.0519 337.938C18.3758 354.726 15.3636 359.369 48.9265 354.995M48.9265 354.995C49.0131 357.106 49.1918 359.153 49.4604 361.135M49.4604 361.135C50.365 367.813 52.2891 373.749 55.143 378.874M49.4604 361.135C34.059 386.127 36.2136 389.093 55.143 378.874M55.143 378.874C56.6668 381.611 58.4557 384.116 60.496 386.379M72.9033 395.718C68.0956 393.327 63.938 390.197 60.496 386.379M72.9033 395.718C70.8536 413.112 68.5387 414.091 60.496 386.379M170.383 378.192C152.657 386.144 140.888 393.267 147.888 365.229M164.248 361.817C133.712 366.526 128.827 362.121 145.161 339.985M130.164 353.63C96.8107 354.501 94.5924 349.837 118.576 332.48M138.344 372.734C120.658 372.377 116.376 370.345 130.164 359.771M121.302 389.108C84.3401 393.218 76.496 390.234 102.215 368.64M98.807 335.891C70.9986 350.202 72.2496 355.417 105.624 357.042M582.116 380.921C595.509 389.797 601.548 394.564 584.843 392.005M569.846 389.108C576.126 390.473 581.066 391.426 584.843 392.005M574.618 402.071C583.212 420.464 582.738 425.414 558.257 410.259M558.257 421.175C554.68 450.505 551.424 457.093 540.534 428.68M537.126 437.55C533.611 449.465 531.157 456.458 529.443 459.382M584.843 392.005C595.068 432.091 554.168 466.205 529.443 459.382M529.443 459.382C526.426 464.53 525.705 457.065 525.537 441.643C525.396 428.68 476.457 415.035 433.511 380.921C415.106 366.301 397.184 360.072 371.478 356.359M544.624 370.687C548.628 387.422 543.96 389.066 527.582 382.968M505.769 347.49C535.647 364.165 535.534 370.049 487.363 370.687M476.457 332.48C501.932 354.556 489.074 356.597 456.006 356.359M488.727 373.416C505.503 402.292 500.133 404.001 476.457 393.202M443.736 324.293C460.623 341.37 458.407 348.571 430.103 356.359M436.238 291.544C455.497 294.745 455.13 297.927 430.103 306.552M417.832 331.115C422.908 337.968 421.344 339.394 413.742 339.303M395.337 310.647C406.59 297.186 417.927 289.607 428.94 286.104M272.635 346.125C239.233 361.817 228.326 353.63 209.049 365.229M364.662 316.788C365.635 299.049 364.662 290.179 345.575 290.179M354.437 318.152V321.563M343.53 318.152V321.563M294.449 333.844C304.674 348.172 324.559 329.975 331.032 338.62C341.416 352.49 354.437 353.855 361.185 338.62C364.662 343.621 371.478 344.303 376.478 338.62M371.478 266.299C354.437 249.925 290.06 254.019 284.223 269.711C260.365 333.844 290.359 353.63 338.758 359.771M371.478 266.299C370.202 256.764 365.422 251.352 348.983 241.572M371.478 266.299C387.274 281.477 389.228 315.368 376.478 338.62M338.758 359.771C275.326 357.095 254.391 340.237 255.593 269.711M338.758 359.771C343.53 360.376 351.642 360.487 353.481 359.771C363.631 355.818 371.278 348.104 376.478 338.62M428.94 286.104C374.205 262.888 383.067 249.925 348.983 241.572M348.983 241.572C364.42 241.597 378.19 237.91 399.426 256.065C401.718 257.425 403.999 258.541 406.265 259.477M499.352 183.062C476.44 113.758 432.208 68.3116 380.34 44.6422M499.352 183.062C465.655 126.552 442.784 107.601 395.337 95.0494M499.352 183.062C496.717 206.233 488.317 221.852 476.457 229.654M395.337 198.072C363.089 196.673 321.033 215.129 321.033 215.129M395.337 198.072C391.753 159.176 383.124 142.407 364.662 114.835M395.337 198.072C402.795 206.964 410.359 214.249 417.832 219.949M321.033 215.129C321.033 215.129 275.666 197.575 243.323 200.119M243.323 200.119C238.02 167.897 238.441 149.388 250.822 114.835M243.323 200.119C232.296 207.259 222.139 213.187 212.648 217.77M104.26 183.062C93.1811 179.712 88.8962 173.251 88.9183 143.491M104.26 183.062C139.245 126.767 160.88 101.018 213.33 95.0494M104.26 183.062C116.729 200.194 128.481 212.181 140.39 219.59M104.26 183.062C86.3486 222.729 76.7013 245.16 74.9492 292.63M88.9183 143.491C131.154 89.087 154.446 68.804 194.924 60.2536M88.9183 143.491C116.459 91.196 162.004 55.2875 213.33 37.6233M364.662 114.835C322.375 101.311 297.675 99.9124 250.822 114.835M364.662 114.835C374.634 104.826 381.038 100.145 395.337 95.0494M250.822 114.835C237.816 102.951 229.966 97.7059 213.33 95.0494M213.33 95.0494C211.926 82.9244 211.785 76.3779 219.464 67.7586M219.464 67.7586C213.501 58.4463 208.876 55.4831 194.924 60.2536M219.464 67.7586C272.483 55.067 302.552 50.5896 359.208 65.7117M194.924 60.2536C205.831 50.7018 206.142 46.461 213.33 37.6233M213.33 37.6233C267.346 19.033 327.766 20.6505 380.34 44.6422M359.208 65.7117C364.1 56.2451 368.115 51.4163 380.34 44.6422M359.208 65.7117C375.712 69.7757 384.556 73.318 395.337 95.0494M212.648 217.77C197.065 225.296 183.278 229.198 170.383 228.891M170.383 228.891C168.698 252.255 167.848 265.444 156.068 279.242M170.383 228.891C159.962 228.642 150.123 225.645 140.39 219.59M156.068 279.242C152.296 280.421 151.996 281.942 156.068 284.721C139.126 290.887 122.429 290.768 112.441 291.817M140.39 219.59C132.228 248.749 128.712 265.462 112.441 291.817M112.441 291.817C104.746 292.626 101.034 294.128 104.26 299.731C92.4428 298.702 79.8506 292.635 74.9492 292.63M417.832 219.949C416.466 235.76 416.241 244.688 406.265 259.477M417.832 219.949C427.606 227.404 437.224 232.148 446.244 234.233M406.265 259.477C422.193 266.057 437.338 263.735 449.87 274.487C456.435 276.786 462.209 278.216 467.241 279.242M446.244 234.233C450.165 256.621 453.374 268.035 467.241 279.242M446.244 234.233C457.54 236.843 467.899 235.284 476.457 229.654M467.241 279.242C477.846 281.405 485.152 281.775 489.604 284.721M476.457 229.654C478.232 249.053 477.993 259.159 489.604 284.721M312.854 316.105C311.438 300.287 307.253 296.182 293.086 298.366C297.172 314.733 301.943 317.469 312.854 316.105ZM380.34 288.132C373.548 291.214 369.828 293.136 369.433 310.647C377.695 307.385 381.77 304.786 380.34 288.132Z" stroke="url(#paint4_linear_579_427)" stroke-width="2" stroke-linecap="round" stroke-linejoin="round"/>
</g>
<defs>
<filter id="filter0_f_579_427" x="0.000732422" y="0" width="620.005" height="486.011" filterUnits="userSpaceOnUse" color-interpolation-filters="sRGB">
<feFlood flood-opacity="0" result="BackgroundImageFix"/>
<feBlend mode="normal" in="SourceGraphic" in2="BackgroundImageFix" result="shape"/>
<feGaussianBlur stdDeviation="10" result="effect1_foregroundBlur_579_427"/>
</filter>
<filter id="filter1_f_579_427" x="7.50049" y="7.5" width="605.002" height="471.006" filterUnits="userSpaceOnUse" color-interpolation-filters="sRGB">
<feFlood flood-opacity="0" result="BackgroundImageFix"/>
<feBlend mode="normal" in="SourceGraphic" in2="BackgroundImageFix" result="shape"/>
<feGaussianBlur stdDeviation="7.5" result="effect1_foregroundBlur_579_427"/>
</filter>
<filter id="filter2_f_579_427" x="13.5002" y="13.5" width="593.001" height="459.003" filterUnits="userSpaceOnUse" color-interpolation-filters="sRGB">
<feFlood flood-opacity="0" result="BackgroundImageFix"/>
<feBlend mode="normal" in="SourceGraphic" in2="BackgroundImageFix" result="shape"/>
<feGaussianBlur stdDeviation="5" result="effect1_foregroundBlur_579_427"/>
</filter>
<filter id="filter3_f_579_427" x="19.0002" y="19" width="582.001" height="448.002" filterUnits="userSpaceOnUse" color-interpolation-filters="sRGB">
<feFlood flood-opacity="0" result="BackgroundImageFix"/>
<feBlend mode="normal" in="SourceGraphic" in2="BackgroundImageFix" result="shape"/>
<feGaussianBlur stdDeviation="2.5" result="effect1_foregroundBlur_579_427"/>
</filter>
<filter id="filter4_f_579_427" x="23.0002" y="23" width="574.001" height="440.002" filterUnits="userSpaceOnUse" color-interpolation-filters="sRGB">
<feFlood flood-opacity="0" result="BackgroundImageFix"/>
<feBlend mode="normal" in="SourceGraphic" in2="BackgroundImageFix" result="shape"/>
<feGaussianBlur stdDeviation="0.5" result="effect1_foregroundBlur_579_427"/>
</filter>
<linearGradient id="paint0_linear_579_427" x1="399.5" y1="387" x2="57.5" y2="74.5" gradientUnits="userSpaceOnUse">
<stop stop-color="#FF00A8"/>
<stop offset="1" stop-color="#FF00A8" stop-opacity="0.1"/>
</linearGradient>
<linearGradient id="paint1_linear_579_427" x1="399.5" y1="387" x2="57.5" y2="74.5" gradientUnits="userSpaceOnUse">
<stop stop-color="#FF00A8"/>
<stop offset="1" stop-color="#FF00A8" stop-opacity="0.1"/>
</linearGradient>
<linearGradient id="paint2_linear_579_427" x1="399.5" y1="387" x2="57.5" y2="74.5" gradientUnits="userSpaceOnUse">
<stop stop-color="#FF00A8"/>
<stop offset="1" stop-color="#FF00A8" stop-opacity="0.1"/>
</linearGradient>
<linearGradient id="paint3_linear_579_427" x1="399.5" y1="387" x2="57.5" y2="74.5" gradientUnits="userSpaceOnUse">
<stop stop-color="#FFD6F1"/>
<stop offset="1" stop-color="#FFCAED" stop-opacity="0.1"/>
</linearGradient>
<linearGradient id="paint4_linear_579_427" x1="399.5" y1="387" x2="57.5" y2="74.5" gradientUnits="userSpaceOnUse">
<stop stop-color="white"/>
<stop offset="1" stop-color="white" stop-opacity="0.1"/>
</linearGradient>
</defs>
</svg>
